<?xml version="1.0" encoding="UTF-8" standalone="no"?>
<svg
   width="790.06195pt"
   height="888.74005pt"
   viewBox="0 0 790.06195 888.74005"
   version="1.1"
   id="svg20"
   sodipodi:docname="missing.svg"
   inkscape:version="1.4 (86a8ad7, 2024-10-11)"
   xmlns:inkscape="http://www.inkscape.org/namespaces/inkscape"
   xmlns:sodipodi="http://sodipodi.sourceforge.net/DTD/sodipodi-0.dtd"
   xmlns="http://www.w3.org/2000/svg"
   xmlns:svg="http://www.w3.org/2000/svg">
  <defs
     id="defs20" />
  <sodipodi:namedview
     id="namedview20"
     pagecolor="#ffffff"
     bordercolor="#000000"
     borderopacity="0.25"
     inkscape:showpageshadow="2"
     inkscape:pageopacity="0.0"
     inkscape:pagecheckerboard="0"
     inkscape:deskcolor="#d1d1d1"
     inkscape:document-units="pt"
     inkscape:zoom="0.82983398"
     inkscape:cx="527.21389"
     inkscape:cy="583.85172"
     inkscape:window-width="2558"
     inkscape:window-height="1341"
     inkscape:window-x="1272"
     inkscape:window-y="0"
     inkscape:window-maximized="0"
     inkscape:current-layer="svg20" />
  <g
     id="#eae2d8ff"
     transform="translate(-117.01131,-72.918603)" />
  <g
     id="#002042ff"
     transform="translate(-117.01131,-72.918603)">
    <path
       fill="#002042"
       opacity="1"
       d="m 500.58,95.68 c 33.81,-13.48 69.74,-23.14 106.37,-22.75 15.16,-0.07 30.45,1.72 44.9,6.44 15.48,5.39 30.42,13.99 40.54,27.17 9.84,13.19 14.52,29.87 14.71,46.2 55.78,-0.14 111.57,-0.02 167.35,-0.07 0.02,56.44 0,112.88 -0.05,169.32 0.12,6.73 -0.27,13.49 0.15,20.2 10.24,4.75 20.37,11.27 26.21,21.23 3.48,5.55 4.89,12.06 5.98,18.44 1.06,20.05 -0.76,40.11 -0.62,60.18 -0.22,12.64 -0.09,25.29 -0.12,37.94 -0.07,7.4 0.33,14.84 -0.79,22.19 -0.57,12.52 -3.24,25.29 -10,36.01 -5.38,8.42 -12.6,15.73 -21.21,20.84 0,34.02 0,68.04 0,102.06 0.18,23.28 -2.07,46.91 -10.11,68.9 -8.74,24.46 -23.55,46.62 -42.48,64.37 -16.13,15.33 -35.72,26.2 -54.84,37.29 -18.2,10.83 -36.52,21.44 -54.58,32.48 -17.57,10.34 -35.19,20.58 -52.62,31.16 -19.06,10.83 -37.9,22.06 -56.78,33.2 -11.64,6.25 -22.93,13.15 -34.56,19.42 -25.47,12.6 -55.28,17.39 -83.11,10.81 -11.62,-2.93 -23.15,-6.89 -33.32,-13.32 -40.38,-22.79 -79.93,-46.98 -120.18,-69.97 -16.82,-9.65 -33.23,-19.99 -50.01,-29.71 -18.25,-11.28 -37.25,-21.29 -55.37,-32.76 -28.87,-18.34 -51.77,-45.86 -64.48,-77.61 -7.71,-18.81 -11.81,-39.07 -11.99,-59.39 -0.35,-33.95 0.03,-67.9 -0.09,-101.86 -9.33,-2.44 -18.4,-7.45 -23.8,-15.65 -6.05,-9.25 -7.75,-20.61 -7.68,-31.46 0.01,-31.32 0,-62.64 0,-93.96 -0.04,-15.33 0.28,-30.67 -0.82,-45.98 -0.7,-8.95 0.7,-18.36 5.68,-26 5.78,-9.41 16.51,-14.52 27.05,-16.5 0.43,-29.2 -0.07,-58.41 0.09,-87.61 -0.18,-28.65 -0.68,-57.3 -0.55,-85.95 -0.12,-6.08 0.13,-12.16 -0.27,-18.23 88.27,-0.14 176.56,-0.06 264.83,-0.04 1.17,-0.65 2.08,-1.66 3.08,-2.54 15.15,-14.59 32.27,-27.09 50.61,-37.36 10.64,-6.3 21.45,-12.37 32.88,-17.13 m 46.33,17.11 c -19.04,5.5 -37.94,12.03 -55.28,21.76 -8.02,4.68 -16.09,9.28 -23.92,14.27 -10.83,6.5 -20.43,14.74 -30.26,22.6 -5.42,4.55 -10.23,9.77 -14.83,15.13 -5.84,6.23 -11.52,12.63 -16.75,19.39 -11.8,17.02 -21.89,35.28 -29.26,54.67 -5.86,18.75 -10.81,38.56 -7.77,58.3 0.54,2.62 0.06,6.02 2.17,7.96 2.07,-2.69 3.24,-5.91 4.97,-8.79 4.92,-8.3 10.22,-16.36 15.98,-24.1 5.98,-8.85 13.38,-16.59 20.31,-24.68 7.42,-8.92 16.06,-16.71 23.84,-25.3 17.77,-16.89 36.05,-33.26 55.38,-48.36 6.45,-5.39 13.65,-9.76 20.55,-14.55 22.22,-15.51 46.38,-27.92 69.95,-41.21 14.39,-7.6 29.35,-14.24 44.95,-18.93 8.9,-3.71 18.76,-5.02 27.31,-9.48 -5.14,-2.44 -10.81,-3.13 -16.4,-3.79 -6.91,-1.14 -13.82,-2.51 -20.83,-2.78 -23.62,-2.71 -47.37,1.69 -70.11,7.89 m 100.33,18.54 c -13.96,4.12 -27.06,10.57 -40.32,16.47 -12.17,5.58 -23.56,12.61 -35.32,18.95 -7.65,4.26 -15.21,8.65 -22.6,13.34 -10.52,7.06 -21.43,13.55 -31.53,21.23 -10.45,6.67 -19.92,14.69 -29.42,22.63 -14.37,11.59 -28.33,23.72 -41.73,36.43 -7.31,8.02 -15.03,15.64 -22.49,23.51 -8.6,10.67 -17.87,20.76 -26.55,31.36 -5.29,7.61 -10.7,15.21 -14.88,23.5 7.52,1.65 14.93,4.01 22.67,4.49 12.87,1.89 25.88,2.08 38.87,1.71 20.56,-1.42 41.4,-3.72 60.77,-11.18 16.07,-6.21 32.3,-12.27 47.34,-20.78 18.51,-10.04 35.7,-22.49 50.86,-37.12 11.73,-9.99 21.74,-21.77 31.23,-33.84 7.89,-11.51 16.52,-22.59 22.87,-35.07 7.39,-14 12.74,-29.19 14.82,-44.92 0.61,-5.33 1.66,-10.7 0.9,-16.07 -0.89,-6.22 -0.87,-12.91 -4.3,-18.42 -0.73,-1.15 -1.72,-2.9 -3.35,-1.78 -5.96,1.8 -11.8,4.01 -17.84,5.56 m -467.22,52.59 c 0.43,17.02 0.37,34.06 0.94,51.08 -0.09,35.64 1.89,71.3 0.08,106.92 7.07,0.37 14.02,1.95 20.96,3.31 4.02,0.7 7.68,2.92 11.83,2.91 -0.4,-36.73 0.3,-73.45 0,-110.18 0,-6.3 -1.26,-12.72 0.16,-18.93 0.25,-0.26 0.75,-0.76 1,-1.01 4.64,-0.47 9.31,0.01 13.96,-0.04 44.4,0.04 88.79,0.01 133.18,0.03 1.45,0.34 1.99,-1.29 2.74,-2.14 3.47,-5.06 6.32,-10.51 9.27,-15.88 3.07,-5.71 7.26,-10.71 10.55,-16.29 -11.57,0.21 -23.14,0.2 -34.72,0.26 -56.65,-0.06 -113.3,0.07 -169.95,-0.04 m 528.03,0.17 c 0.22,5.7 -0.94,11.3 -1.18,16.98 -0.45,5.95 -2.91,11.43 -4.33,17.16 25.46,-0.68 50.94,0.41 76.4,0.2 7.96,-0.12 15.96,0.85 23.89,-0.25 1.74,-0.24 3.52,-0.08 5.22,0.42 -0.05,40.04 -1.07,80.06 -1.07,120.09 4.32,-0.93 8.66,-1.77 12.99,-2.65 6.7,-1.68 13.68,-0.94 20.51,-0.91 0.09,-50.33 0.13,-100.67 0.29,-151 -7.6,-0.41 -15.2,0.32 -22.8,0.4 -36.64,-0.5 -73.29,0.49 -109.92,-0.44 m -47.26,92.67 c -9.65,10.12 -21.05,18.34 -31.15,27.99 -14.17,12.76 -29.62,24.13 -46.1,33.74 -8.41,5.19 -17.05,10.04 -26.14,13.94 -3.1,1.39 -6.51,2.14 -9.31,4.13 6.85,-0.82 13.54,-2.66 20.3,-4.04 26.87,-8.68 51.74,-23.47 72.32,-42.79 7.37,-6.78 13.17,-15.04 18.54,-23.45 4.42,-7.28 9.22,-14.39 12.62,-22.22 -4.07,3.9 -6.93,8.86 -11.08,12.7 m 162.74,89.79 c -12.32,3.46 -25.68,6.54 -34.91,16.07 -5.74,6.09 -11.75,12.35 -14.84,20.28 -3.25,7.92 -4.69,16.51 -4.74,25.06 -0.1,12.68 0.55,25.35 0.26,38.03 -0.44,9 -0.31,18.02 -0.27,27.02 0.73,14.48 6.81,29.29 18.54,38.27 10.01,7.75 23.09,9.95 35.46,9.74 8.11,0.34 15.94,-2.17 23.9,-3.34 7.47,-1.1 12.68,-7.21 17.21,-12.7 3.85,-4.45 5.33,-10.22 7.33,-15.61 2.28,-5.87 1.47,-12.26 1.75,-18.4 -0.37,-17.52 1.05,-35.01 0.78,-52.53 -5.34,-0.33 -10.64,0.76 -15.98,0.56 -9.69,-0.25 -19.34,1.07 -29.02,0.97 -2,-0.02 -4.04,-0.01 -5.89,0.8 1.52,8.6 0.67,17.37 0.87,26.05 6.66,-0.97 13.3,-2.21 20.07,-1.86 -1.38,9.4 -0.1,19.08 -2.74,28.28 -1.54,5.08 -4.98,10.46 -10.61,11.42 -4.49,0.75 -9.07,1.87 -13.62,1.13 -6.46,-3.4 -11.82,-9.33 -13.45,-16.57 -1.74,-7.97 -1.11,-16.17 -1.2,-24.26 0,-14.35 0.29,-28.7 0.67,-43.05 1.42,-10.06 8.49,-19.64 18.61,-22.22 6.29,-2.41 13.93,-2.11 19.04,2.67 3.16,4.02 1.57,9.38 2.99,13.95 9.12,-0.78 18.22,-2 27.25,-3.54 2.11,-0.41 2.45,-3.03 2.85,-4.78 0.56,-7.31 2.23,-14.81 0.3,-22.05 -1.31,-5.51 -4.96,-10.51 -10.06,-13.04 -12.36,-6.43 -26.84,-8.47 -40.55,-6.35 m -670.57,7.58 c -1.53,0.13 -2.74,1.12 -3.99,1.89 -0.99,6.63 0.34,13.29 0.03,19.95 -0.3,9.38 1.25,18.69 1,28.06 -0.09,26.97 0.14,53.95 -0.33,80.91 0.38,12.69 0.07,25.4 1.47,38.04 0.22,0.25 0.65,0.75 0.87,1 8.14,0.11 16.47,1.39 24.49,-0.49 3.9,-0.88 4.85,-5.17 5.1,-8.59 0.93,-11.96 -0.68,-23.93 -0.6,-35.91 0.04,-11.33 0.04,-22.67 -0.54,-34 -0.43,-6.79 0.54,-13.54 0.68,-20.32 0.23,0.3 0.7,0.89 0.94,1.18 7.51,17.6 14.83,35.32 22.13,53.02 3.12,6.85 5.57,14.04 9.32,20.58 2.14,1.28 5.08,0.48 7.53,0.6 2.31,0.15 3.01,-2.52 3.93,-4.11 3.72,-9.42 8.25,-18.51 11.81,-28.01 5.27,-13.63 11.85,-26.69 17.79,-40.02 0.43,3.04 1.41,6.01 1.41,9.11 -0.86,16.35 0.33,32.74 -0.42,49.11 -0.57,10.99 -0.77,22 -0.46,33 7.01,0.45 13.88,-1.54 20.86,-1.98 4.76,-0.15 9.45,-1.1 14.03,-2.36 0.32,-8.61 -0.73,-17.17 -0.97,-25.75 -0.08,-26.69 -0.08,-53.37 -0.74,-80.04 -0.47,-13.33 -0.14,-26.67 -0.68,-39.99 -0.21,-2.25 0.25,-4.69 -0.72,-6.79 -4.58,-4.13 -11.17,-4.1 -16.97,-4.45 -7.49,-1.28 -15.11,-0.69 -22.67,-0.8 -8.53,23.01 -17.51,45.87 -26.74,68.61 -0.35,1.3 -0.64,2.62 -0.85,3.96 -0.79,-0.64 -1.35,-1.43 -1.69,-2.38 -8,-19.51 -16.53,-38.81 -25.01,-58.11 -2.09,-4.52 -3.95,-9.19 -6.6,-13.41 -1.86,-3.33 -6.04,-3.27 -9.35,-3.48 -8.05,0.13 -16.12,0.61 -24.06,1.97 m 562.64,4.86 c -0.47,3.34 0.25,6.68 0.26,10.03 0.36,13.99 -0.16,28 0.5,41.99 0.15,10.15 0.75,20.3 0.58,30.46 -1.06,-1.11 -2.14,-2.21 -2.93,-3.51 -12.67,-23.14 -25.03,-46.45 -37,-69.96 -1.4,-3.15 -4.26,-6.07 -7.92,-6.01 -9.43,-0.23 -18.72,2.51 -28.16,1.57 -2.39,-0.01 -1.59,2.91 -1.87,4.42 -0.17,23.34 -0.08,46.68 0.32,70.02 -0.07,24.8 0.76,49.6 0.54,74.41 11.2,1.16 22.58,0.57 33.83,0.08 -0.32,-7.47 -1.02,-14.94 -0.79,-22.45 -1.13,-20.62 -0.6,-41.27 -1.39,-61.9 6.63,10.62 12.77,21.54 18.64,32.6 5.78,12.15 12.04,24.05 17.75,36.24 2.79,6.06 5.03,12.51 9.25,17.78 1.41,1.71 3.25,3.65 5.71,3.26 8.04,-0.3 16.08,-0.7 24.13,-0.58 2.09,-0.34 5.47,0.6 6.25,-2.1 1.64,-4.62 0.03,-9.55 -0.16,-14.28 -1.28,-23.01 -2.44,-46.04 -2.14,-69.09 -0.15,-24.92 -0.06,-49.86 0.87,-74.76 -1.62,-0.32 -3.23,-0.73 -4.87,-0.82 -10.5,0.42 -20.87,2.8 -31.4,2.6 m -409.64,1.85 c 0.36,33.71 1.19,67.41 1.04,101.12 0.16,17.81 1.24,35.6 1,53.41 11.83,0.46 23.65,-0.46 35.47,-0.38 -0.36,-50.71 -0.67,-101.46 0.31,-152.17 -6.99,-2.34 -14.47,-2.2 -21.74,-2.62 -5.36,-0.05 -10.83,-0.7 -16.08,0.64 m 91.29,2.44 c -10.17,1.44 -19.62,6.97 -25.69,15.27 -4,4.46 -6.98,9.75 -8.41,15.59 -2.95,9.65 -3.02,20.15 -0.16,29.83 2.48,7.38 7.91,13.32 13.97,17.99 6.26,3.42 13.17,5.45 19.64,8.46 6.38,3.04 13.53,4.46 19.49,8.39 5,3.29 6.61,9.59 6.91,15.23 -0.42,3.85 -1.92,8.5 -6.1,9.69 -5.6,1.34 -12.06,1.67 -17.1,-1.52 -3.33,-3.13 -3.71,-8.02 -5.03,-12.16 -2.59,-0.06 -5.17,0.13 -7.73,0.44 -8.55,0.97 -17.3,-0.39 -25.73,1.65 -0.35,4.64 0.7,9.21 0.65,13.84 0,4.45 1.42,8.77 3.18,12.81 2.69,6.1 8.53,10.11 14.46,12.7 7.39,2.97 15.35,5.17 23.39,4.58 10.68,-0.07 21.69,0.43 31.9,-3.29 12.52,-4.86 20.52,-17.77 22.11,-30.75 0.94,-9.3 0.52,-19.06 -3.13,-27.77 -5,-11.83 -15.85,-20.38 -27.97,-24.1 -9.08,-4.57 -19.78,-6.48 -27.22,-13.85 -2.14,-1.81 -2.74,-4.71 -2.71,-7.38 -0.25,-3.74 0.73,-7.84 3.42,-10.56 5.22,-3.18 12.24,-3.25 17.7,-0.57 4.83,1.8 4.72,7.8 6.29,11.92 1.11,1.3 2.94,1.81 4.57,2.17 7.36,0.34 14.76,-0.21 22.11,0.48 1.61,0.21 3.24,0.09 4.84,-0.25 0.43,-5.59 -0.56,-11.13 -1.2,-16.65 -1.4,-9.61 -6.26,-19.43 -15.07,-24.2 -12.67,-6.45 -27.2,-9.64 -41.38,-7.99 m 104.34,2.28 c -12.97,4.06 -22.59,15.45 -27.03,28 -3.33,8.32 -3.68,17.58 -2.16,26.33 1.16,6.36 4.78,11.94 8.95,16.74 3.28,2.87 7.04,5.19 11.03,6.94 7.64,3.51 15.07,7.63 23.2,9.93 4.43,2.07 8.99,4.1 12.94,7.03 3.83,3.92 7.18,10.04 4.57,15.5 -3.58,8.88 -16.73,10.55 -23.31,4.16 -2.48,-2.74 -2.31,-7.11 -4.95,-9.63 -4.26,-0.44 -8.54,0.56 -12.82,0.42 -5.98,0.26 -12.02,-0.46 -17.96,0.29 -1.54,2.62 -0.64,5.8 -0.44,8.64 0.97,8.88 2.78,18.56 9.54,24.98 6.42,6.75 16.04,8.45 24.9,9.24 11.16,0.75 22.51,0.22 33.36,-2.61 6.24,-1.62 11.06,-6.14 15.76,-10.29 4.56,-3.8 7.57,-9.22 9.27,-14.85 2.52,-9.93 2.77,-20.62 -0.27,-30.46 -3.47,-9.84 -11.03,-17.96 -20.24,-22.73 -10.73,-5.97 -24.1,-6.33 -33.66,-14.51 -4.1,-4.42 -7.26,-11.05 -4.67,-17.01 4.05,-7.47 14.58,-8.13 21.55,-4.81 4.61,3.36 1.96,10.51 6.07,13.97 7,1.23 13.88,-1.4 20.83,-1.88 2.74,-0.11 5.36,-0.95 7.86,-2.04 0.05,-4.66 -0.56,-9.28 -0.93,-13.9 -0.73,-6.4 -2.32,-13.19 -7.14,-17.81 -4.2,-4.75 -10.42,-6.75 -16.18,-8.89 -6.3,-2.38 -13.08,-2.75 -19.73,-3.1 -6.15,0.08 -12.52,0.09 -18.34,2.35 m 82.83,-0.28 c -0.01,35.23 0.37,70.46 0.35,105.69 -0.24,13.81 -1.11,27.62 -0.65,41.43 8.28,0.53 16.6,1.03 24.88,0.07 4.18,-0.55 8.54,0.03 12.63,-0.89 0.88,-3.73 0.14,-7.76 0.36,-11.6 -0.95,-26.31 -1.13,-52.64 -1.33,-78.96 -0.16,-19 0.59,-38.02 0.47,-57 -3.53,-1.53 -7.43,-0.99 -11.16,-1.05 -8.55,-0.1 -17.23,0.24 -25.55,2.31 M 533.4,571.25 c -8.17,6.16 -15.93,13.38 -20.56,22.65 -2.81,5.05 -4.68,10.57 -5.93,16.2 -3.26,13.96 -4.73,28.48 -3.19,42.78 1.4,15.47 8.04,30.43 18.53,41.87 10.79,11.29 25.33,18.77 40.74,21.21 7.58,1.6 15.35,0.89 23.03,1.06 15.77,-0.5 32,-7.46 41.31,-20.56 5.4,-7.56 6.89,-16.99 8.31,-25.96 1.42,-13.16 2.19,-26.42 1.89,-39.67 -21.92,-0.25 -43.83,0.28 -65.75,0.17 -0.01,9.02 0.73,17.98 1.39,26.96 9.87,-0.01 19.75,-0.12 29.62,-0.61 -0.9,6.6 -1.8,13.4 -5.03,19.34 -2.66,4.37 -7.78,6.78 -12.75,7.22 -7.43,0.34 -15.09,0.73 -22.24,-1.69 -7.77,-2.9 -14.14,-9.31 -16.8,-17.2 -3.86,-9.21 -2.87,-19.32 -2.97,-29.05 -0.3,-7.06 1.31,-14 2.79,-20.85 0.75,-9.79 8.88,-16.61 16.2,-22.07 3.77,-1.61 8.02,-1.64 12.06,-1.65 5.74,0.74 12.22,1.61 16.22,6.29 3.76,3.56 2.72,9.76 6.75,13.17 4.69,0.78 9.25,-1.27 13.96,-0.9 6.77,-0.77 13.62,-1.37 20.25,-2.93 0.31,-6.23 -0.61,-12.55 -2.85,-18.37 -2.44,-5.24 -5.93,-9.98 -10.07,-13.99 -6.52,-5.58 -13.67,-10.74 -22.07,-13.02 -9.39,-3.17 -19.43,-2.71 -29.19,-2.84 -12.27,-0.04 -24.02,5.09 -33.65,12.44 M 406.42,560.5 c -8.88,0.88 -17.27,4.56 -24.95,8.91 -8.99,5.05 -13.62,14.6 -19.55,22.58 -6.59,10.88 -10.93,23.25 -11.89,35.98 0.08,5.02 -1.04,9.95 -1.03,14.97 -0.21,15.75 4.02,31.49 11.83,45.15 12.76,18.16 34.86,29.93 57.2,28.91 11.54,0.03 23.44,-1.61 33.7,-7.23 14.57,-7.16 26.47,-20.15 31.09,-35.84 3.28,-9.3 2.51,-19.28 4.09,-28.87 0.14,-4.38 1.38,-8.65 1.11,-13.04 -0.22,-6.31 0.65,-12.77 -1.2,-18.92 -2.47,-9.24 -5.71,-18.55 -11.75,-26.11 -4.61,-5.7 -9.82,-11.01 -16.05,-14.95 -7.99,-6.47 -17.63,-11.25 -28,-12.05 -8.19,-0.41 -16.46,-0.65 -24.6,0.51 m 305.7,2.61 c -10,0.93 -19.86,4.1 -28.13,9.85 -6.41,5.17 -13.29,10.16 -17.81,17.18 -4.67,8.28 -8.2,17.33 -9.87,26.7 -1.07,10.99 -2.38,22.06 -1.41,33.11 0.11,12.69 1.42,25.72 7.02,37.3 5.35,9.47 11.95,18.49 20.79,25 11.42,9.75 26.52,13.71 41.26,14.33 12.24,0.51 25.25,0.59 36.35,-5.33 8.38,-4.23 15,-11.37 19.04,-19.8 3.45,-5.95 4.24,-12.85 5.58,-19.46 1.69,-8.58 0.88,-17.36 1.23,-26.03 0.39,-8.98 -0.15,-17.95 -0.11,-26.93 0.08,-5.61 -0.51,-11.22 -1.54,-16.73 -1.37,-4.54 -2.76,-9.08 -4.24,-13.58 -3.86,-7.96 -9.1,-15.4 -16.28,-20.7 -7.06,-6.6 -15.84,-11.18 -25.11,-13.8 -8.76,-2.14 -17.86,-1.51 -26.77,-1.11 m -447.09,1.84 c -6.87,0.02 -13.57,1.81 -20.42,2.11 1.81,38.28 1.36,76.62 1.71,114.93 0.33,15.72 -1.59,31.58 0.6,47.2 8.94,-1.25 18,-1.29 26.9,-2.94 9.92,-1.85 20.03,-2.02 30.02,-3.21 12.99,-1.23 25.96,-2.77 38.93,-4.28 0.3,-0.23 0.91,-0.68 1.22,-0.91 0.46,-6.01 -1.25,-11.91 -1.18,-17.92 -1.06,-5.36 -0.12,-11.16 -2.73,-16.14 -9.73,-0.21 -19.38,1.08 -29.02,2.09 -9.39,0.46 -18.64,2.48 -28.06,2.18 -0.36,-34.69 0.23,-69.37 0.63,-104.05 -0.1,-6.36 0.3,-12.75 -0.55,-19.06 -5.9,-2.08 -12.03,0.06 -18.05,0 m -84.05,8.16 c 0.19,19.65 -0.03,39.31 0.13,58.97 0.24,20.58 -0.3,41.21 1.16,61.75 1.44,8.01 3.91,15.77 6.43,23.5 8.25,26.42 25.43,50.08 48.51,65.45 11.39,8.03 23.85,14.33 36.01,21.1 8.35,4.46 16.14,9.86 24.19,14.84 17.84,10.91 35.78,21.65 54.02,31.88 14.99,9 30.75,16.74 45.21,26.63 19.63,11.37 39.15,22.92 58.6,34.6 7.58,3.98 14.77,8.68 22.44,12.49 11.54,4.37 24.01,6.29 36.34,5.73 11.43,0.4 22.96,-1.92 33.29,-6.87 10.61,-5.01 20.55,-11.27 30.78,-17 19.9,-11.75 40.08,-23.06 59.61,-35.42 11.97,-7.18 24.33,-13.67 36.33,-20.8 17.43,-10.56 35.02,-20.85 52.58,-31.18 12.22,-7.54 24.31,-15.3 36.84,-22.3 7.71,-4.61 15.98,-8.35 23.07,-13.94 10.31,-7.89 20.51,-16.31 28.05,-27.01 8.71,-11.94 15.23,-25.39 19.75,-39.45 4.21,-11.78 6.62,-24.13 7.46,-36.6 0.46,-36.14 -0.18,-72.31 0.85,-108.43 -10.51,1.1 -21.26,3.27 -31.73,0.81 -0.42,35.04 -0.82,70.08 -0.95,105.12 -1.37,13.33 -3.87,26.64 -8.77,39.15 -4.57,12.3 -11.81,23.65 -21.47,32.58 -5.91,5.31 -13,9.01 -19.76,13.11 -8.5,4.77 -16.52,10.33 -24.96,15.21 -10.32,6.13 -20.73,12.08 -31.06,18.19 -24.36,14.09 -48.18,29.07 -72.62,43 -24.82,14.08 -49.3,28.73 -73.84,43.3 -10.17,5.74 -19.82,13.03 -31.49,15.41 -17.62,3.79 -36.52,-0.53 -51.46,-10.4 -9.8,-6.36 -20.11,-11.89 -30.2,-17.78 -15.28,-8.58 -30.04,-18.07 -45.33,-26.66 -16.52,-9.38 -32.56,-19.57 -48.99,-29.1 -19.32,-11.37 -38.85,-22.39 -58.11,-33.87 -12.98,-8.13 -26.48,-15.42 -39.36,-23.72 -6.88,-4.24 -12.29,-10.36 -17.71,-16.26 -7.69,-9.13 -12.63,-20.24 -16.39,-31.48 -6.9,-19.43 -5.82,-40.36 -6.25,-60.65 0.35,-24.02 0.36,-48.06 -0.27,-72.08 -0.04,-1.38 -0.49,-2.68 -0.87,-3.98 -10.07,-0.2 -20.11,0.67 -30.06,2.16 z"
       id="path1"
       style="fill:#006837;fill-opacity:1" />
    <path
       fill="#002042"
       opacity="1"
       d="m 413.33,594.46 c 8.08,-2.02 17.17,-0.95 23.81,4.36 2.81,2.42 6.26,4.42 8.13,7.74 1.42,3.93 2.92,7.85 4.26,11.81 2.97,13.13 -0.1,26.49 -1.92,39.55 -1.84,7.82 -5.03,16.14 -12.04,20.72 -7.28,5.25 -16.79,4.75 -25.28,4 -9.8,-1.35 -15.9,-10.51 -18.8,-19.2 -2.68,-6.51 -2.51,-13.61 -3.26,-20.48 -0.33,-5.17 0.73,-10.28 1.58,-15.34 0.92,-9.96 4,-20.35 11.24,-27.6 3.39,-3.07 7.91,-4.51 12.28,-5.56 z"
       id="path2" />
    <path
       fill="#002042"
       opacity="1"
       d="m 711.39,597.5 c 5.05,-0.85 10.32,-0.95 15.4,-0.16 5.68,1.74 11.68,3.65 16.03,7.9 2.63,3.18 3.62,7.35 4.62,11.27 2.28,16.06 1.32,32.35 1.5,48.53 0.2,8.61 -2.57,17.2 -7.78,24.06 -6.49,6.21 -16.48,5.57 -24.51,3.3 -7.3,-2.5 -14.99,-6.28 -18.68,-13.44 -2.82,-5.61 -4.99,-11.65 -5.57,-17.93 -0.74,-11.05 -0.07,-22.12 0.5,-33.16 -0.28,-7.89 2.1,-15.86 6.59,-22.35 2.74,-4.1 7.17,-6.8 11.9,-8.02 z"
       id="path3" />
    <path
       style="fill:#006837;fill-opacity:1;stroke-width:1.20506"
       d="m 538.52149,905.17024 c -15.51288,-9.83797 -22.71089,-38.45002 -17.44492,-69.34342 5.04801,-29.61466 15.54241,-41.34454 38.16132,-42.65393 8.42797,-0.48788 10.21912,-0.19718 15.85262,2.57288 19.13361,9.40822 24.7828,22.14378 23.49978,52.97802 -1.12324,26.99425 -5.3289,41.62065 -14.62375,50.85834 -7.56771,7.52116 -12.26099,9.03335 -28.03635,9.03335 -11.10537,0 -12.37113,-0.2505 -17.4087,-3.44524 z"
       id="path39"
       transform="scale(0.75)" />
    <path
       style="fill:#006837;fill-opacity:1;stroke-width:1.20506"
       d="m 951.86805,920.23925 c -12.05207,-4.95777 -17.46776,-9.92707 -22.00845,-20.19437 -4.30448,-9.7332 -5.57953,-18.51256 -5.5692,-38.34681 0.01,-18.69012 1.39152,-34.39044 3.70679,-42.11815 2.00892,-6.70516 9.35674,-15.91991 15.32099,-19.21374 4.10454,-2.26679 6.87625,-2.80274 14.41229,-2.78682 18.55579,0.0392 32.44084,7.26722 36.22725,18.85855 1.97396,6.04289 3.82607,58.40814 2.59959,73.49913 -1.37579,16.92812 -6.6678,27.91291 -15.15583,31.45944 -6.504,2.71754 -21.54696,2.1281 -29.53343,-1.15723 z"
       id="path40"
       transform="scale(0.75)" />
    <path
       style="fill:#006837;fill-opacity:1;stroke-width:1.20506"
       d="m 539.62037,906.21581 c -8.48693,-4.60454 -16.28664,-18.05864 -19.11496,-32.9723 -2.7365,-14.42955 -0.27981,-41.48681 5.06353,-55.76819 5.82719,-15.57454 16.54563,-23.31117 33.66895,-24.30243 8.42441,-0.48768 10.22566,-0.19575 15.88927,2.5752 9.90222,4.84471 15.72513,10.52346 19.58251,19.09769 3.06211,6.80652 3.47537,9.25802 3.92337,23.27367 0.52145,16.31374 -1.41771,33.75031 -5.12027,46.04038 -2.30078,7.6371 -7.97867,15.32546 -14.92319,20.20729 -5.00127,3.51578 -5.70916,3.65697 -19.84556,3.95832 -12.76928,0.27221 -15.23488,2.1e-4 -19.12365,-2.10963 z"
       id="path41"
       transform="scale(0.75)" />
    <path
       style="fill:#006837;fill-opacity:1;stroke-width:1.20506"
       d="m 540.46955,906.72425 c -1.98835,-1.032 -5.14785,-3.33334 -7.02112,-5.11408 -4.26137,-4.05089 -10.99869,-18.05592 -12.74551,-26.49443 -3.05043,-14.73586 -0.71124,-42.73385 4.80131,-57.46747 5.90083,-15.77136 16.538,-23.47993 33.77744,-24.47791 8.85377,-0.51254 10.1068,-0.27615 17.29551,3.26284 9.30545,4.58106 16.00525,11.76669 19.32709,20.72857 2.04821,5.52581 2.40781,9.46908 2.40574,26.38045 -0.004,29.10527 -3.74139,44.74562 -13.19406,55.2086 -7.23982,8.01361 -12.47404,9.8659 -27.85476,9.85723 -9.564,-0.005 -14.1676,-0.52185 -16.79164,-1.8838 z"
       id="path42"
       transform="scale(0.75)" />
  </g>
  <g
     id="#e3741fff"
     transform="translate(-117.01131,-72.918603)">
    <path
       fill="#e3741f"
       opacity="1"
       d="m 546.91,112.79 c 22.74,-6.2 46.49,-10.6 70.11,-7.89 7.01,0.27 13.92,1.64 20.83,2.78 5.59,0.66 11.26,1.35 16.4,3.79 -8.55,4.46 -18.41,5.77 -27.31,9.48 -15.6,4.69 -30.56,11.33 -44.95,18.93 -23.57,13.29 -47.73,25.7 -69.95,41.21 -6.9,4.79 -14.1,9.16 -20.55,14.55 -19.33,15.1 -37.61,31.47 -55.38,48.36 -7.78,8.59 -16.42,16.38 -23.84,25.3 -6.93,8.09 -14.33,15.83 -20.31,24.68 -5.76,7.74 -11.06,15.8 -15.98,24.1 -1.73,2.88 -2.9,6.1 -4.97,8.79 -2.11,-1.94 -1.63,-5.34 -2.17,-7.96 -3.04,-19.74 1.91,-39.55 7.77,-58.3 7.37,-19.39 17.46,-37.65 29.26,-54.67 5.23,-6.76 10.91,-13.16 16.75,-19.39 4.6,-5.36 9.41,-10.58 14.83,-15.13 9.83,-7.86 19.43,-16.1 30.26,-22.6 7.83,-4.99 15.9,-9.59 23.92,-14.27 17.34,-9.73 36.24,-16.26 55.28,-21.76 z"
       id="path4" />
    <path
       fill="#e3741f"
       opacity="1"
       d="m 647.24,131.33 c 6.04,-1.55 11.88,-3.76 17.84,-5.56 1.63,-1.12 2.62,0.63 3.35,1.78 3.43,5.51 3.41,12.2 4.3,18.42 0.76,5.37 -0.29,10.74 -0.9,16.07 -2.08,15.73 -7.43,30.92 -14.82,44.92 -6.35,12.48 -14.98,23.56 -22.87,35.07 -9.49,12.07 -19.5,23.85 -31.23,33.84 -15.16,14.63 -32.35,27.08 -50.86,37.12 -15.04,8.51 -31.27,14.57 -47.34,20.78 -19.37,7.46 -40.21,9.76 -60.77,11.18 -12.99,0.37 -26,0.18 -38.87,-1.71 -7.74,-0.48 -15.15,-2.84 -22.67,-4.49 4.18,-8.29 9.59,-15.89 14.88,-23.5 8.68,-10.6 17.95,-20.69 26.55,-31.36 7.46,-7.87 15.18,-15.49 22.49,-23.51 13.4,-12.71 27.36,-24.84 41.73,-36.43 9.5,-7.94 18.97,-15.96 29.42,-22.63 10.1,-7.68 21.01,-14.17 31.53,-21.23 7.39,-4.69 14.95,-9.08 22.6,-13.34 11.76,-6.34 23.15,-13.37 35.32,-18.95 13.26,-5.9 26.36,-12.35 40.32,-16.47 z"
       id="path5"
       style="fill:#ffd700;fill-opacity:1" />
    <path
       fill="#e3741f"
       opacity="1"
       d="m 180.02,183.92 c 56.65,0.11 113.3,-0.02 169.95,0.04 11.58,-0.06 23.15,-0.05 34.72,-0.26 -3.29,5.58 -7.48,10.58 -10.55,16.29 -2.95,5.37 -5.8,10.82 -9.27,15.88 -0.75,0.85 -1.29,2.48 -2.74,2.14 -44.39,-0.02 -88.78,0.01 -133.18,-0.03 -4.65,0.05 -9.32,-0.43 -13.96,0.04 -0.25,0.25 -0.75,0.75 -1,1.01 -1.42,6.21 -0.16,12.63 -0.16,18.93 0.3,36.73 -0.4,73.45 0,110.18 -4.15,0.01 -7.81,-2.21 -11.83,-2.91 -6.94,-1.36 -13.89,-2.94 -20.96,-3.31 1.81,-35.62 -0.17,-71.28 -0.08,-106.92 -0.57,-17.02 -0.51,-34.06 -0.94,-51.08 z"
       id="path6" />
    <path
       fill="#e3741f"
       opacity="1"
       d="m 708.05,184.09 c 36.63,0.93 73.28,-0.06 109.92,0.44 7.6,-0.08 15.2,-0.81 22.8,-0.4 -0.16,50.33 -0.2,100.67 -0.29,151 -6.83,-0.03 -13.81,-0.77 -20.51,0.91 -4.33,0.88 -8.67,1.72 -12.99,2.65 0,-40.03 1.02,-80.05 1.07,-120.09 -1.7,-0.5 -3.48,-0.66 -5.22,-0.42 -7.93,1.1 -15.93,0.13 -23.89,0.25 -25.46,0.21 -50.94,-0.88 -76.4,-0.2 1.42,-5.73 3.88,-11.21 4.33,-17.16 0.24,-5.68 1.4,-11.28 1.18,-16.98 z"
       id="path7" />
    <path
       fill="#e3741f"
       opacity="1"
       d="m 660.79,276.76 c 4.15,-3.84 7.01,-8.8 11.08,-12.7 -3.4,7.83 -8.2,14.94 -12.62,22.22 -5.37,8.41 -11.17,16.67 -18.54,23.45 -20.58,19.32 -45.45,34.11 -72.32,42.79 -6.76,1.38 -13.45,3.22 -20.3,4.04 2.8,-1.99 6.21,-2.74 9.31,-4.13 9.09,-3.9 17.73,-8.75 26.14,-13.94 16.48,-9.61 31.93,-20.98 46.1,-33.74 10.1,-9.65 21.5,-17.87 31.15,-27.99 z"
       id="path8" />
    <path
       fill="#e3741f"
       opacity="1"
       d="m 823.53,366.55 c 13.71,-2.12 28.19,-0.08 40.55,6.35 5.1,2.53 8.75,7.53 10.06,13.04 1.93,7.24 0.26,14.74 -0.3,22.05 -0.4,1.75 -0.74,4.37 -2.85,4.78 -9.03,1.54 -18.13,2.76 -27.25,3.54 -1.42,-4.57 0.17,-9.93 -2.99,-13.95 -5.11,-4.78 -12.75,-5.08 -19.04,-2.67 -10.12,2.58 -17.19,12.16 -18.61,22.22 -0.38,14.35 -0.67,28.7 -0.67,43.05 0.09,8.09 -0.54,16.29 1.2,24.26 1.63,7.24 6.99,13.17 13.45,16.57 4.55,0.74 9.13,-0.38 13.62,-1.13 5.63,-0.96 9.07,-6.34 10.61,-11.42 2.64,-9.2 1.36,-18.88 2.74,-28.28 -6.77,-0.35 -13.41,0.89 -20.07,1.86 -0.2,-8.68 0.65,-17.45 -0.87,-26.05 1.85,-0.81 3.89,-0.82 5.89,-0.8 9.68,0.1 19.33,-1.22 29.02,-0.97 5.34,0.2 10.64,-0.89 15.98,-0.56 0.27,17.52 -1.15,35.01 -0.78,52.53 -0.28,6.14 0.53,12.53 -1.75,18.4 -2,5.39 -3.48,11.16 -7.33,15.61 -4.53,5.49 -9.74,11.6 -17.21,12.7 -7.96,1.17 -15.79,3.68 -23.9,3.34 -12.37,0.21 -25.45,-1.99 -35.46,-9.74 -11.73,-8.98 -17.81,-23.79 -18.54,-38.27 -0.04,-9 -0.17,-18.02 0.27,-27.02 0.29,-12.68 -0.36,-25.35 -0.26,-38.03 0.05,-8.55 1.49,-17.14 4.74,-25.06 3.09,-7.93 9.1,-14.19 14.84,-20.28 9.23,-9.53 22.59,-12.61 34.91,-16.07 z"
       id="path9" />
    <path
       fill="#e3741f"
       opacity="1"
       d="m 152.96,374.13 c 7.94,-1.36 16.01,-1.84 24.06,-1.97 3.31,0.21 7.49,0.15 9.35,3.48 2.65,4.22 4.51,8.89 6.6,13.41 8.48,19.3 17.01,38.6 25.01,58.11 0.34,0.95 0.9,1.74 1.69,2.38 0.21,-1.34 0.5,-2.66 0.85,-3.96 9.23,-22.74 18.21,-45.6 26.74,-68.61 7.56,0.11 15.18,-0.48 22.67,0.8 5.8,0.35 12.39,0.32 16.97,4.45 0.97,2.1 0.51,4.54 0.72,6.79 0.54,13.32 0.21,26.66 0.68,39.99 0.66,26.67 0.66,53.35 0.74,80.04 0.24,8.58 1.29,17.14 0.97,25.75 -4.58,1.26 -9.27,2.21 -14.03,2.36 -6.98,0.44 -13.85,2.43 -20.86,1.98 -0.31,-11 -0.11,-22.01 0.46,-33 0.75,-16.37 -0.44,-32.76 0.42,-49.11 0,-3.1 -0.98,-6.07 -1.41,-9.11 -5.94,13.33 -12.52,26.39 -17.79,40.02 -3.56,9.5 -8.09,18.59 -11.81,28.01 -0.92,1.59 -1.62,4.26 -3.93,4.11 -2.45,-0.12 -5.39,0.68 -7.53,-0.6 -3.75,-6.54 -6.2,-13.73 -9.32,-20.58 -7.3,-17.7 -14.62,-35.42 -22.13,-53.02 -0.24,-0.29 -0.71,-0.88 -0.94,-1.18 -0.14,6.78 -1.11,13.53 -0.68,20.32 0.58,11.33 0.58,22.67 0.54,34 -0.08,11.98 1.53,23.95 0.6,35.91 -0.25,3.42 -1.2,7.71 -5.1,8.59 -8.02,1.88 -16.35,0.6 -24.49,0.49 -0.22,-0.25 -0.65,-0.75 -0.87,-1 -1.4,-12.64 -1.09,-25.35 -1.47,-38.04 0.47,-26.96 0.24,-53.94 0.33,-80.91 0.25,-9.37 -1.3,-18.68 -1,-28.06 0.31,-6.66 -1.02,-13.32 -0.03,-19.95 1.25,-0.77 2.46,-1.76 3.99,-1.89 z"
       id="path10" />
    <path
       fill="#e3741f"
       opacity="1"
       d="m 715.6,378.99 c 10.53,0.2 20.9,-2.18 31.4,-2.6 1.64,0.09 3.25,0.5 4.87,0.82 -0.93,24.9 -1.02,49.84 -0.87,74.76 -0.3,23.05 0.86,46.08 2.14,69.09 0.19,4.73 1.8,9.66 0.16,14.28 -0.78,2.7 -4.16,1.76 -6.25,2.1 -8.05,-0.12 -16.09,0.28 -24.13,0.58 -2.46,0.39 -4.3,-1.55 -5.71,-3.26 -4.22,-5.27 -6.46,-11.72 -9.25,-17.78 -5.71,-12.19 -11.97,-24.09 -17.75,-36.24 -5.87,-11.06 -12.01,-21.98 -18.64,-32.6 0.79,20.63 0.26,41.28 1.39,61.9 -0.23,7.51 0.47,14.98 0.79,22.45 -11.25,0.49 -22.63,1.08 -33.83,-0.08 0.22,-24.81 -0.61,-49.61 -0.54,-74.41 -0.4,-23.34 -0.49,-46.68 -0.32,-70.02 0.28,-1.51 -0.52,-4.43 1.87,-4.42 9.44,0.94 18.73,-1.8 28.16,-1.57 3.66,-0.06 6.52,2.86 7.92,6.01 11.97,23.51 24.33,46.82 37,69.96 0.79,1.3 1.87,2.4 2.93,3.51 0.17,-10.16 -0.43,-20.31 -0.58,-30.46 -0.66,-13.99 -0.14,-28 -0.5,-41.99 -0.01,-3.35 -0.73,-6.69 -0.26,-10.03 z"
       id="path11" />
    <path
       fill="#e3741f"
       opacity="1"
       d="m 305.96,380.84 c 5.25,-1.34 10.72,-0.69 16.08,-0.64 7.27,0.42 14.75,0.28 21.74,2.62 -0.98,50.71 -0.67,101.46 -0.31,152.17 -11.82,-0.08 -23.64,0.84 -35.47,0.38 0.24,-17.81 -0.84,-35.6 -1,-53.41 0.15,-33.71 -0.68,-67.41 -1.04,-101.12 z"
       id="path12" />
    <path
       fill="#e3741f"
       opacity="1"
       d="m 397.25,383.28 c 14.18,-1.65 28.71,1.54 41.38,7.99 8.81,4.77 13.67,14.59 15.07,24.2 0.64,5.52 1.63,11.06 1.2,16.65 -1.6,0.34 -3.23,0.46 -4.84,0.25 -7.35,-0.69 -14.75,-0.14 -22.11,-0.48 -1.63,-0.36 -3.46,-0.87 -4.57,-2.17 -1.57,-4.12 -1.46,-10.12 -6.29,-11.92 -5.46,-2.68 -12.48,-2.61 -17.7,0.57 -2.69,2.72 -3.67,6.82 -3.42,10.56 -0.03,2.67 0.57,5.57 2.71,7.38 7.44,7.37 18.14,9.28 27.22,13.85 12.12,3.72 22.97,12.27 27.97,24.1 3.65,8.71 4.07,18.47 3.13,27.77 -1.59,12.98 -9.59,25.89 -22.11,30.75 -10.21,3.72 -21.22,3.22 -31.9,3.29 -8.04,0.59 -16,-1.61 -23.39,-4.58 -5.93,-2.59 -11.77,-6.6 -14.46,-12.7 -1.76,-4.04 -3.18,-8.36 -3.18,-12.81 0.05,-4.63 -1,-9.2 -0.65,-13.84 8.43,-2.04 17.18,-0.68 25.73,-1.65 2.56,-0.31 5.14,-0.5 7.73,-0.44 1.32,4.14 1.7,9.03 5.03,12.16 5.04,3.19 11.5,2.86 17.1,1.52 4.18,-1.19 5.68,-5.84 6.1,-9.69 -0.3,-5.64 -1.91,-11.94 -6.91,-15.23 -5.96,-3.93 -13.11,-5.35 -19.49,-8.39 -6.47,-3.01 -13.38,-5.04 -19.64,-8.46 -6.06,-4.67 -11.49,-10.61 -13.97,-17.99 -2.86,-9.68 -2.79,-20.18 0.16,-29.83 1.43,-5.84 4.41,-11.13 8.41,-15.59 6.07,-8.3 15.52,-13.83 25.69,-15.27 z"
       id="path13" />
    <path
       fill="#e3741f"
       opacity="1"
       d="m 501.59,385.56 c 5.82,-2.26 12.19,-2.27 18.34,-2.35 6.65,0.35 13.43,0.72 19.73,3.1 5.76,2.14 11.98,4.14 16.18,8.89 4.82,4.62 6.41,11.41 7.14,17.81 0.37,4.62 0.98,9.24 0.93,13.9 -2.5,1.09 -5.12,1.93 -7.86,2.04 -6.95,0.48 -13.83,3.11 -20.83,1.88 -4.11,-3.46 -1.46,-10.61 -6.07,-13.97 -6.97,-3.32 -17.5,-2.66 -21.55,4.81 -2.59,5.96 0.57,12.59 4.67,17.01 9.56,8.18 22.93,8.54 33.66,14.51 9.21,4.77 16.77,12.89 20.24,22.73 3.04,9.84 2.79,20.53 0.27,30.46 -1.7,5.63 -4.71,11.05 -9.27,14.85 -4.7,4.15 -9.52,8.67 -15.76,10.29 -10.85,2.83 -22.2,3.36 -33.36,2.61 -8.86,-0.79 -18.48,-2.49 -24.9,-9.24 -6.76,-6.42 -8.57,-16.1 -9.54,-24.98 -0.2,-2.84 -1.1,-6.02 0.44,-8.64 5.94,-0.75 11.98,-0.03 17.96,-0.29 4.28,0.14 8.56,-0.86 12.82,-0.42 2.64,2.52 2.47,6.89 4.95,9.63 6.58,6.39 19.73,4.72 23.31,-4.16 2.61,-5.46 -0.74,-11.58 -4.57,-15.5 -3.95,-2.93 -8.51,-4.96 -12.94,-7.03 -8.13,-2.3 -15.56,-6.42 -23.2,-9.93 -3.99,-1.75 -7.75,-4.07 -11.03,-6.94 -4.17,-4.8 -7.79,-10.38 -8.95,-16.74 -1.52,-8.75 -1.17,-18.01 2.16,-26.33 4.44,-12.55 14.06,-23.94 27.03,-28 z"
       id="path14" />
    <path
       fill="#e3741f"
       opacity="1"
       d="m 584.42,385.28 c 8.32,-2.07 17,-2.41 25.55,-2.31 3.73,0.06 7.63,-0.48 11.16,1.05 0.12,18.98 -0.63,38 -0.47,57 0.2,26.32 0.38,52.65 1.33,78.96 -0.22,3.84 0.52,7.87 -0.36,11.6 -4.09,0.92 -8.45,0.34 -12.63,0.89 -8.28,0.96 -16.6,0.46 -24.88,-0.07 -0.46,-13.81 0.41,-27.62 0.65,-41.43 0.02,-35.23 -0.36,-70.46 -0.35,-105.69 z"
       id="path15" />
    <path
       fill="#e3741f"
       opacity="1"
       d="m 533.4,571.25 c 9.63,-7.35 21.38,-12.48 33.65,-12.44 9.76,0.13 19.8,-0.33 29.19,2.84 8.4,2.28 15.55,7.44 22.07,13.02 4.14,4.01 7.63,8.75 10.07,13.99 2.24,5.82 3.16,12.14 2.85,18.37 -6.63,1.56 -13.48,2.16 -20.25,2.93 -4.71,-0.37 -9.27,1.68 -13.96,0.9 -4.03,-3.41 -2.99,-9.61 -6.75,-13.17 -4,-4.68 -10.48,-5.55 -16.22,-6.29 -4.04,0.01 -8.29,0.04 -12.06,1.65 -7.32,5.46 -15.45,12.28 -16.2,22.07 -1.48,6.85 -3.09,13.79 -2.79,20.85 0.1,9.73 -0.89,19.84 2.97,29.05 2.66,7.89 9.03,14.3 16.8,17.2 7.15,2.42 14.81,2.03 22.24,1.69 4.97,-0.44 10.09,-2.85 12.75,-7.22 3.23,-5.94 4.13,-12.74 5.03,-19.34 -9.87,0.49 -19.75,0.6 -29.62,0.61 -0.66,-8.98 -1.4,-17.94 -1.39,-26.96 21.92,0.11 43.83,-0.42 65.75,-0.17 0.3,13.25 -0.47,26.51 -1.89,39.67 -1.42,8.97 -2.91,18.4 -8.31,25.96 -9.31,13.1 -25.54,20.06 -41.31,20.56 -7.68,-0.17 -15.45,0.54 -23.03,-1.06 -15.41,-2.44 -29.95,-9.92 -40.74,-21.21 -10.49,-11.44 -17.13,-26.4 -18.53,-41.87 -1.54,-14.3 -0.07,-28.82 3.19,-42.78 1.25,-5.63 3.12,-11.15 5.93,-16.2 4.63,-9.27 12.39,-16.49 20.56,-22.65 z"
       id="path16" />
    <path
       fill="#e3741f"
       opacity="1"
       d="m 406.42,560.5 c 8.14,-1.16 16.41,-0.92 24.6,-0.51 10.37,0.8 20.01,5.58 28,12.05 6.23,3.94 11.44,9.25 16.05,14.95 6.04,7.56 9.28,16.87 11.75,26.11 1.85,6.15 0.98,12.61 1.2,18.92 0.27,4.39 -0.97,8.66 -1.11,13.04 -1.58,9.59 -0.81,19.57 -4.09,28.87 -4.62,15.69 -16.52,28.68 -31.09,35.84 -10.26,5.62 -22.16,7.26 -33.7,7.23 -22.34,1.02 -44.44,-10.75 -57.2,-28.91 -7.81,-13.66 -12.04,-29.4 -11.83,-45.15 -0.01,-5.02 1.11,-9.95 1.03,-14.97 0.96,-12.73 5.3,-25.1 11.89,-35.98 5.93,-7.98 10.56,-17.53 19.55,-22.58 7.68,-4.35 16.07,-8.03 24.95,-8.91 m 6.91,33.96 c -4.37,1.05 -8.89,2.49 -12.28,5.56 -7.24,7.25 -10.32,17.64 -11.24,27.6 -0.85,5.06 -1.91,10.17 -1.58,15.34 0.75,6.87 0.58,13.97 3.26,20.48 2.9,8.69 9,17.85 18.8,19.2 8.49,0.75 18,1.25 25.28,-4 7.01,-4.58 10.2,-12.9 12.04,-20.72 1.82,-13.06 4.89,-26.42 1.92,-39.55 -1.34,-3.96 -2.84,-7.88 -4.26,-11.81 -1.87,-3.32 -5.32,-5.32 -8.13,-7.74 -6.64,-5.31 -15.73,-6.38 -23.81,-4.36 z"
       id="path17" />
    <path
       fill="#e3741f"
       opacity="1"
       d="m 712.12,563.11 c 8.91,-0.4 18.01,-1.03 26.77,1.11 9.27,2.62 18.05,7.2 25.11,13.8 7.18,5.3 12.42,12.74 16.28,20.7 1.48,4.5 2.87,9.04 4.24,13.58 1.03,5.51 1.62,11.12 1.54,16.73 -0.04,8.98 0.5,17.95 0.11,26.93 -0.35,8.67 0.46,17.45 -1.23,26.03 -1.34,6.61 -2.13,13.51 -5.58,19.46 -4.04,8.43 -10.66,15.57 -19.04,19.8 -11.1,5.92 -24.11,5.84 -36.35,5.33 -14.74,-0.62 -29.84,-4.58 -41.26,-14.33 -8.84,-6.51 -15.44,-15.53 -20.79,-25 -5.6,-11.58 -6.91,-24.61 -7.02,-37.3 -0.97,-11.05 0.34,-22.12 1.41,-33.11 1.67,-9.37 5.2,-18.42 9.87,-26.7 4.52,-7.02 11.4,-12.01 17.81,-17.18 8.27,-5.75 18.13,-8.92 28.13,-9.85 m -0.73,34.39 c -4.73,1.22 -9.16,3.92 -11.9,8.02 -4.49,6.49 -6.87,14.46 -6.59,22.35 -0.57,11.04 -1.24,22.11 -0.5,33.16 0.58,6.28 2.75,12.32 5.57,17.93 3.69,7.16 11.38,10.94 18.68,13.44 8.03,2.27 18.02,2.91 24.51,-3.3 5.21,-6.86 7.98,-15.45 7.78,-24.06 -0.18,-16.18 0.78,-32.47 -1.5,-48.53 -1,-3.92 -1.99,-8.09 -4.62,-11.27 -4.35,-4.25 -10.35,-6.16 -16.03,-7.9 -5.08,-0.79 -10.35,-0.69 -15.4,0.16 z"
       id="path18" />
    <path
       fill="#e3741f"
       opacity="1"
       d="m 265.03,564.95 c 6.02,0.06 12.15,-2.08 18.05,0 0.85,6.31 0.45,12.7 0.55,19.06 -0.4,34.68 -0.99,69.36 -0.63,104.05 9.42,0.3 18.67,-1.72 28.06,-2.18 9.64,-1.01 19.29,-2.3 29.02,-2.09 2.61,4.98 1.67,10.78 2.73,16.14 -0.07,6.01 1.64,11.91 1.18,17.92 -0.31,0.23 -0.92,0.68 -1.22,0.91 -12.97,1.51 -25.94,3.05 -38.93,4.28 -9.99,1.19 -20.1,1.36 -30.02,3.21 -8.9,1.65 -17.96,1.69 -26.9,2.94 -2.19,-15.62 -0.27,-31.48 -0.6,-47.2 -0.35,-38.31 0.1,-76.65 -1.71,-114.93 6.85,-0.3 13.55,-2.09 20.42,-2.11 z"
       id="path19" />
    <path
       fill="#e3741f"
       opacity="1"
       d="m 180.98,573.11 c 9.95,-1.49 19.99,-2.36 30.06,-2.16 0.38,1.3 0.83,2.6 0.87,3.98 0.63,24.02 0.62,48.06 0.27,72.08 0.43,20.29 -0.65,41.22 6.25,60.65 3.76,11.24 8.7,22.35 16.39,31.48 5.42,5.9 10.83,12.02 17.71,16.26 12.88,8.3 26.38,15.59 39.36,23.72 19.26,11.48 38.79,22.5 58.11,33.87 16.43,9.53 32.47,19.72 48.99,29.1 15.29,8.59 30.05,18.08 45.33,26.66 10.09,5.89 20.4,11.42 30.2,17.78 14.94,9.87 33.84,14.19 51.46,10.4 11.67,-2.38 21.32,-9.67 31.49,-15.41 24.54,-14.57 49.02,-29.22 73.84,-43.3 24.44,-13.93 48.26,-28.91 72.62,-43 10.33,-6.11 20.74,-12.06 31.06,-18.19 8.44,-4.88 16.46,-10.44 24.96,-15.21 6.76,-4.1 13.85,-7.8 19.76,-13.11 9.66,-8.93 16.9,-20.28 21.47,-32.58 4.9,-12.51 7.4,-25.82 8.77,-39.15 0.13,-35.04 0.53,-70.08 0.95,-105.12 10.47,2.46 21.22,0.29 31.73,-0.81 -1.03,36.12 -0.39,72.29 -0.85,108.43 -0.84,12.47 -3.25,24.82 -7.46,36.6 -4.52,14.06 -11.04,27.51 -19.75,39.45 -7.54,10.7 -17.74,19.12 -28.05,27.01 -7.09,5.59 -15.36,9.33 -23.07,13.94 -12.53,7 -24.62,14.76 -36.84,22.3 -17.56,10.33 -35.15,20.62 -52.58,31.18 -12,7.13 -24.36,13.62 -36.33,20.8 -19.53,12.36 -39.71,23.67 -59.61,35.42 -10.23,5.73 -20.17,11.99 -30.78,17 -10.33,4.95 -21.86,7.27 -33.29,6.87 -12.33,0.56 -24.8,-1.36 -36.34,-5.73 -7.67,-3.81 -14.86,-8.51 -22.44,-12.49 -19.45,-11.68 -38.97,-23.23 -58.6,-34.6 -14.46,-9.89 -30.22,-17.63 -45.21,-26.63 -18.24,-10.23 -36.18,-20.97 -54.02,-31.88 -8.05,-4.98 -15.84,-10.38 -24.19,-14.84 -12.16,-6.77 -24.62,-13.07 -36.01,-21.1 -23.08,-15.37 -40.26,-39.03 -48.51,-65.45 -2.52,-7.73 -4.99,-15.49 -6.43,-23.5 -1.46,-20.54 -0.92,-41.17 -1.16,-61.75 -0.16,-19.66 0.06,-39.32 -0.13,-58.97 z"
       id="path20" />
    <path
       style="fill:#ffd700;fill-opacity:1;stroke-width:1.20506"
       d="m 493.49429,432.9924 c -1.98497,-4.83982 -2.09659,-35.74791 -0.17144,-47.47225 6.47762,-39.44931 28.98967,-87.48142 56.15083,-119.80435 32.74727,-38.97065 68.6495,-66.88428 117.3834,-91.26446 31.05348,-15.53516 76.53979,-29.1432 112.08936,-33.53351 21.47129,-2.65166 70.64017,0.88097 87.33483,6.27474 5.2316,1.69025 4.0935,2.41408 -11.29098,7.18102 -46.49655,14.40716 -59.67473,20.27904 -113.27567,50.47293 -39.67525,22.34942 -71.20694,42.98661 -95.19976,62.30734 -67.57307,54.41463 -121.75805,113.23221 -148.10325,160.76545 -3.2498,5.86345 -4.19376,6.83731 -4.91732,5.07309 z"
       id="path23"
       transform="scale(0.75)" />
    <path
       style="fill:#ffd700;fill-opacity:1;stroke-width:1.20506"
       d="m 275.95881,461.539 c -3.64531,-1.18907 -12.64579,-3.11817 -20.00107,-4.28689 l -13.37323,-2.12493 0.0819,-41.68304 c 0.045,-22.92567 -0.36307,-70.01701 -0.9069,-104.64744 l -0.98877,-62.9644 h 135.08743 c 74.29809,0 135.08743,0.35553 135.08743,0.79005 0,0.43453 -1.41899,2.65046 -3.15333,4.92428 -1.73433,2.27383 -7.63035,11.81487 -13.10228,21.20231 l -9.94894,17.06807 -99.87212,0.60253 -99.87214,0.60253 -0.30924,86.46307 c -0.17008,47.5547 -0.71236,86.40745 -1.20506,86.33945 -0.4927,-0.068 -3.87834,-1.09651 -7.52365,-2.28559 z"
       id="path24"
       transform="scale(0.75)" />
    <path
       style="fill:#ffd700;fill-opacity:1;stroke-width:1.20506"
       d="m 410.48206,662.48191 c -0.39995,-28.00259 -0.87049,-74.23172 -1.04564,-102.7314 l -0.31844,-51.81759 19.31551,0.183 c 10.62353,0.10065 21.47269,0.76387 24.10925,1.47382 l 4.79374,1.29082 -0.008,100.59191 c -0.008,99.56872 -0.0326,100.59851 -2.41817,101.24112 -1.32557,0.35706 -11.70058,0.65662 -23.05557,0.66567 l -20.64545,0.0164 z"
       id="path25"
       transform="scale(0.75)" />
    <path
       style="fill:#ffd700;fill-opacity:1;stroke-width:1.20506"
       d="m 204.68266,724.63945 c -1.09186,-0.29001 -2.32828,-1.71837 -2.74762,-3.17413 -0.89266,-3.09893 -1.67856,-52.11602 -2.40197,-149.81292 l -0.51865,-70.04222 2.9034,-1.32288 c 1.59687,-0.72758 10.09735,-1.9406 18.88996,-2.6956 21.76477,-1.86888 24.64444,-1.06643 29.54778,8.23381 3.61579,6.85815 27.08481,60.22989 36.13217,82.16948 4.43029,10.74333 7.54699,14.95174 7.54699,10.19054 0,-1.17445 5.6813,-16.53897 12.62511,-34.14338 6.94382,-17.60441 15.00794,-38.24421 17.9203,-45.86622 l 5.29518,-13.85819 20.04656,0.1404 c 21.11367,0.14787 29.58263,1.81685 31.98354,6.30299 0.59336,1.10871 1.40422,32.10686 1.80193,68.88478 0.39769,36.77792 1.036,81.83266 1.41848,100.12163 l 0.69538,33.25269 -8.83764,1.33908 c -13.29106,2.01385 -28.90816,3.8599 -32.63891,3.85818 l -3.31526,-0.002 0.2569,-58.74669 c 0.16963,-38.79494 -0.16723,-59.48811 -0.99189,-60.92973 -1.03437,-1.80826 -2.82657,1.29498 -10.4393,18.0759 -5.05481,11.14242 -12.78932,28.93538 -17.18781,39.53991 -4.3985,10.60453 -9.81265,23.21247 -12.03145,28.01765 l -4.03418,8.73669 h -5.48384 c -5.47459,0 -5.48962,-0.0117 -8.91662,-6.9291 -1.88803,-3.811 -11.49583,-26.3155 -21.35067,-50.01 -9.85484,-23.6945 -18.27995,-43.08091 -18.72247,-43.08091 -1.92993,0 -2.27112,19.63174 -1.16079,66.79127 0.65423,27.78761 0.88787,51.91895 0.5192,53.62518 -1.61717,7.48433 -3.14009,9.68731 -7.54209,10.91003 -4.25388,1.18158 -25.26266,1.48549 -29.26172,0.4233 z"
       id="path26"
       transform="scale(0.75)" />
    <path
       style="fill:#ffd700;fill-opacity:1;stroke-width:1.20506"
       d="m 522.39365,712.81477 c -16.1112,-3.55271 -28.22225,-10.11134 -32.97052,-17.85485 -3.43251,-5.59777 -5.88665,-15.62317 -6.75441,-27.59237 l -0.75971,-10.47887 3.974,-0.61327 c 2.18571,-0.33729 12.16861,-0.94569 22.18423,-1.352 l 18.21023,-0.73875 0.75859,3.79294 c 2.36724,11.83617 9.22471,16.60925 21.9723,15.29357 11.30242,-1.16651 14.98547,-5.18425 14.9334,-16.29048 -0.0342,-7.30198 -3.48076,-14.77671 -8.57906,-18.60598 -2.22618,-1.67206 -13.71583,-6.90451 -25.53254,-11.62768 -11.81671,-4.72316 -22.93339,-9.351 -24.70374,-10.28408 -5.7539,-3.03269 -15.66527,-14.33829 -19.02071,-21.69638 -6.32165,-13.86263 -5.22559,-35.92602 2.58432,-52.02176 3.98132,-8.20525 15.73464,-20.8501 23.11244,-24.8656 15.37755,-8.36952 35.00928,-9.02616 56.986,-1.90606 25.76873,8.34865 34.44862,20.11834 36.87312,49.99893 l 0.84424,10.4049 -18.55741,-0.66102 c -10.20658,-0.36356 -19.45459,-1.02456 -20.55114,-1.46888 -1.09654,-0.44432 -2.99451,-3.84653 -4.21771,-7.56045 -2.85281,-8.66183 -6.49751,-11.43227 -15.93829,-12.11516 -14.12456,-1.02167 -19.42486,3.6219 -19.42486,17.01804 0,10.8892 5.64577,15.43765 32.33367,26.04926 18.12772,7.20792 23.92679,10.42613 31.29225,17.36573 10.90204,10.27171 15.24335,19.04209 17.21697,34.78204 3.40119,27.12496 -9.06096,52.19544 -29.80327,59.95613 -12.07493,4.51781 -42.4191,6.16883 -56.46239,3.0721 z"
       id="path27"
       transform="scale(0.75)" />
    <path
       style="fill:#ffd700;fill-opacity:1;stroke-width:1.20506"
       d="m 671.15907,710.99871 c -17.72928,-2.83972 -29.77778,-11.33727 -34.68988,-24.46603 -3.057,-8.17056 -5.97255,-28.12894 -4.33361,-29.6657 0.61799,-0.57946 10.07119,-1.24777 21.00711,-1.48513 l 19.88349,-0.43157 3.08973,6.48095 c 3.59845,7.54806 8.60877,10.86436 16.53121,10.94191 10.7101,0.10484 19.54352,-6.95939 19.54352,-15.62928 0,-12.48743 -7.67217,-19.58268 -30.44269,-28.15348 -4.2105,-1.58483 -13.91907,-5.89257 -21.57459,-9.57276 -15.00709,-7.21427 -21.28092,-12.72324 -26.30202,-23.09543 -13.84528,-28.60054 5.26826,-71.92393 35.90662,-81.38715 9.1929,-2.8394 30.38921,-3.47621 40.60509,-1.21991 19.73337,4.35833 32.20694,12.86689 36.77957,25.08834 3.05555,8.16668 4.76562,29.51616 2.47749,30.9303 -3.00484,1.85709 -31.49414,5.39374 -34.43675,4.27496 -2.79308,-1.06192 -3.44593,-2.5588 -5.94741,-13.63636 -0.96372,-4.26771 -6.67116,-6.84969 -15.14121,-6.84969 -8.06228,0 -13.8572,2.56681 -16.83995,7.45911 -3.29589,5.40591 -3.06454,10.15866 0.8729,17.93234 4.176,8.24466 11.02465,12.55402 29.70759,18.69282 16.93497,5.56447 26.21401,10.69784 33.97783,18.7973 12.22993,12.75867 15.52601,22.30787 14.65621,42.46096 -0.78482,18.18407 -3.5368,25.28708 -13.6522,35.23694 -9.33059,9.17789 -15.76045,13.01942 -25.84254,15.4397 -9.38049,2.25184 -36.5082,3.35083 -45.83551,1.85686 z"
       id="path28"
       transform="scale(0.75)" />
    <path
       style="fill:#ffd700;fill-opacity:1;stroke-width:1.20506"
       d="m 779.96816,612.10189 0.30839,-98.04499 4.21771,-0.91407 c 6.67016,-1.44556 34.04989,-2.63373 39.05473,-1.69482 l 4.54029,0.85176 -0.81476,39.99369 c -0.44812,21.99652 -0.23239,65.73225 0.47939,97.19051 0.73309,32.39988 0.83998,57.651 0.24656,58.24442 -0.57618,0.57619 -11.68855,1.35605 -24.69415,1.73305 l -23.64655,0.68543 z"
       id="path29"
       transform="scale(0.75)" />
    <path
       style="fill:#ffd700;fill-opacity:1;stroke-width:1.20506"
       d="m 957.52841,712.94795 c -2.15405,-2.30854 -10.49435,-18.16414 -19.78966,-37.62176 -14.53677,-30.42945 -35.52322,-69.64311 -40.57147,-75.80868 -1.83255,-2.23816 -1.92344,1.02924 -1.27388,45.79229 0.38471,26.51132 1.04273,51.86278 1.46226,56.33657 l 0.76279,8.13415 h -21.6761 -21.6761 l -0.79177,-20.07595 c -0.43548,-11.04178 -0.79178,-55.5085 -0.79178,-98.81495 v -78.73899 l 6.32657,0.002 c 3.47961,9.6e-4 12.17659,-0.63196 19.32662,-1.40648 18.45822,-1.99947 18.9618,-1.69533 28.62123,17.28576 10.77621,21.17558 36.73967,70.01608 42.32576,79.62001 2.60216,4.47379 5.23578,8.13416 5.8525,8.13416 1.05054,0 0.74673,-47.93108 -0.58104,-91.66889 l -0.53301,-17.55767 20.75116,-2.16696 c 11.41314,-1.19182 21.82643,-1.95968 23.14063,-1.70635 2.35088,0.45316 2.39048,1.65875 2.45488,74.55488 0.045,50.64477 0.6069,82.10324 1.7761,99.40054 2.0478,30.29704 2.1371,36.29986 0.561,37.75344 -0.6586,0.60742 -10.36756,1.42816 -21.57549,1.82387 l -20.37803,0.71947 z"
       id="path30"
       transform="scale(0.75)" />
    <path
       style="fill:#ffd700;fill-opacity:1;stroke-width:1.20506"
       d="m 751.3551,466.54365 c 17.58655,-8.55418 42.19145,-23.42069 58.78289,-35.51718 15.15349,-11.0481 69.96543,-58.80254 75.46992,-65.75252 2.20943,-2.78963 4.24983,-4.83937 4.53422,-4.55498 0.65443,0.65443 -11.36319,20.58885 -18.64375,30.92563 -19.41846,27.56986 -58.92744,56.48272 -98.6951,72.22555 -9.96084,3.94319 -30.83933,9.73849 -34.99235,9.71291 -0.5041,-0.003 5.59078,-3.17084 13.54417,-7.03941 z"
       id="path31"
       transform="scale(0.75)" />
    <path
       style="fill:#ffd700;fill-opacity:1;stroke-width:1.20506"
       d="m 1076.5361,425.08503 c 0.4248,-14.08415 0.8594,-50.01001 0.9657,-79.83525 l 0.1934,-54.22771 -70.2043,-0.31103 c -62.41763,-0.27653 -70.12592,-0.51539 -69.4973,-2.15355 3.23177,-8.42184 6.65584,-28.55823 6.75289,-39.71254 0.0208,-2.38791 0.83133,-2.41012 87.99031,-2.41012 h 87.9693 v 80.73904 c 0,44.40648 -0.3583,89.27991 -0.7912,99.71875 l -0.7872,18.9797 h -8.8066 c -4.8436,0 -14.3841,1.08291 -21.2011,2.40646 -6.817,1.32357 -12.6101,2.40812 -12.8734,2.41013 -0.2634,0.002 -0.1313,-11.51974 0.2935,-25.60388 z"
       id="path32"
       transform="scale(0.75)" />
    <path
       style="fill:#ffd700;fill-opacity:1;stroke-width:1.20506"
       d="m 1075.867,718.79036 c -19.2062,-3.82291 -33.1558,-14.52896 -41.8816,-32.14348 -7.7647,-15.67436 -8.3075,-21.15165 -7.8587,-79.29648 0.3544,-45.91266 0.5894,-50.78253 2.8691,-59.43903 3.1684,-12.03112 7.0784,-19.14637 16.5474,-30.11205 12.0119,-13.91052 20.9083,-19.28534 42.2335,-25.51539 14.6839,-4.28984 26.1321,-5.00613 39.5539,-2.47478 19.7869,3.73179 30.2353,9.59711 35.2361,19.78017 2.9895,6.08733 3.3102,7.95161 3.1436,18.27099 -0.2345,14.52717 -1.9027,21.15721 -5.5506,22.06004 -5.798,1.43499 -33.6437,4.59372 -34.3417,3.89564 -0.4067,-0.40667 -1.1367,-4.10813 -1.6221,-8.22547 -1.0114,-8.57735 -3.7691,-11.85766 -12.056,-14.34046 -10.199,-3.0557 -26.0586,2.82141 -33.6997,12.4881 -7.8554,9.93787 -8.2942,13.0149 -8.6414,60.59959 -0.3381,46.3363 0.1598,50.95528 6.4256,59.60499 1.9201,2.6506 5.6718,6.26239 8.3371,8.02621 4.4982,2.97677 5.5235,3.16051 14.285,2.55999 19.725,-1.35198 24.2697,-8.31507 26.0962,-39.98303 l 0.8956,-15.52795 -10.7003,0.79276 c -5.8851,0.43602 -11.9203,1.12772 -13.4116,1.53713 -2.7072,0.74322 -2.7114,0.721 -2.7114,-14.36088 0,-8.30788 -0.3023,-15.89303 -0.6718,-16.85588 -0.3695,-0.96286 0.1001,-2.04684 1.0435,-2.40886 0.9434,-0.36201 16.0687,-1.05021 33.6119,-1.52932 l 31.8966,-0.87111 -0.4123,25.77629 c -0.921,57.58185 -1.1967,62.74169 -3.7298,69.81895 -3.7872,10.58141 -7.3131,16.70524 -13.3089,23.11524 -8.6585,9.25658 -11.2084,10.57434 -26.4957,13.69242 -15.986,3.26061 -32.1362,3.64237 -45.0815,1.06566 z"
       id="path33"
       transform="scale(0.75)" />
    <path
       style="fill:#ffd700;fill-opacity:1;stroke-width:1.20506"
       d="m 959.22801,967.734 c -22.0595,-2.34272 -38.76192,-9.54712 -53.35577,-23.01439 -15.60254,-14.39809 -24.27695,-28.40653 -28.89123,-46.65694 -2.39064,-9.45544 -2.66295,-13.56307 -2.65567,-40.05973 0.008,-30.52314 0.66498,-36.46073 5.66346,-51.21506 5.77215,-17.038 11.9458,-25.80678 26.1125,-37.08903 9.73496,-7.75285 20.16918,-13.24567 30.50973,-16.06104 9.32094,-2.53776 32.5013,-3.50989 42.43683,-1.77969 26.72124,4.6533 52.89354,26.09352 61.88254,50.69388 5.6918,15.57697 6.2577,21.11857 6.3012,61.70497 0.046,43.34125 -1.5139,55.8268 -8.8451,70.77117 -7.3316,14.94527 -21.6487,26.62647 -37.7867,30.82989 -8.49787,2.21341 -29.30875,3.15706 -41.37179,1.87597 z m 24.21293,-45.03455 c 4.47769,-2.34958 6.06739,-4.26536 10.13129,-12.20943 l 4.82024,-9.42256 -0.0122,-38.10184 c -0.0106,-32.98324 -0.29821,-39.03197 -2.14095,-45.02556 -2.77253,-9.01778 -7.47807,-14.20261 -16.79406,-18.50468 -6.82967,-3.1539 -8.79257,-3.49246 -20.2172,-3.48705 -14.88262,0.007 -20.58298,2.24441 -26.48832,10.3965 -6.70679,9.25845 -8.61355,16.67629 -9.87139,38.40245 -2.79589,48.2923 3.66753,67.06502 26.43128,76.76846 6.89464,2.93896 10.9749,3.71289 20.28317,3.84723 6.76095,0.0976 9.65706,-0.45906 13.85819,-2.66352 z"
       id="path34"
       transform="scale(0.75)" />
    <path
       style="fill:#ffd700;fill-opacity:1;stroke-width:1.20506"
       d="m 750.15004,953.82488 c -22.77659,-4.24035 -43.47768,-16.14042 -57.6823,-33.1588 -6.22777,-7.46142 -15.84078,-27.71503 -18.15132,-38.24295 -6.13255,-27.94277 -1.19577,-69.93468 10.73614,-91.3208 10.62524,-19.04411 34.8729,-37.8724 55.73528,-43.27839 9.45138,-2.44909 35.23247,-2.49615 46.61356,-0.0851 22.86777,4.84452 44.7224,22.33532 50.8215,40.67369 1.15694,3.4786 2.14923,9.57184 2.20509,13.54053 l 0.10158,7.2158 -10.24302,1.40059 c -21.00189,2.87172 -31.98249,3.77118 -33.86154,2.77371 -1.0601,-0.56274 -3.11031,-4.26725 -4.55602,-8.23225 -3.11158,-8.53381 -7.41276,-12.5885 -16.08601,-15.16418 -7.01693,-2.0838 -17.68631,-2.3929 -23.64174,-0.6849 -5.47546,1.57034 -16.37381,11.11519 -20.25684,17.74109 -4.25326,7.25763 -7.52701,23.08512 -8.43018,40.75699 -1.41191,27.62626 2.97149,43.95144 14.67265,54.64564 8.54054,7.80557 15.23124,9.83238 32.34632,9.79862 14.25675,-0.0281 20.6812,-1.77738 25.19841,-6.86106 2.92977,-3.29717 6.68992,-14.41252 7.65591,-22.63157 l 0.79961,-6.8034 -19.47312,0.38661 c -16.50945,0.32776 -19.54838,0.1115 -19.96765,-1.42098 -0.27199,-0.99418 -0.8565,-8.63349 -1.2989,-16.97624 l -0.80436,-15.16864 29.93528,-0.7958 c 16.46442,-0.43768 36.03591,-0.79697 43.49222,-0.7984 l 13.55693,-0.003 v 10.67299 c 0,16.06043 -2.33014,41.62914 -4.88027,53.5512 -1.24691,5.82947 -4.0003,13.85083 -6.11865,17.82527 -7.79606,14.62689 -25.28182,26.57605 -44.68431,30.5357 -11.10985,2.26728 -31.85956,2.31835 -43.73425,0.10762 z"
       id="path35"
       transform="scale(0.75)" />
    <path
       style="fill:#ffd700;fill-opacity:1;stroke-width:1.20506"
       d="m 540.78695,954.45314 c -18.33772,-3.36055 -34.41222,-11.83279 -48.19606,-25.40226 -11.66143,-11.48007 -16.01023,-19.15518 -22.23031,-39.23388 -3.12852,-10.09899 -3.32053,-12.02774 -3.287,-33.01912 0.056,-35.06256 4.39973,-49.86196 22.31002,-76.01168 9.38913,-13.7085 15.93579,-19.61052 28.00627,-25.24854 13.17672,-6.15474 24.90235,-8.40027 43.86425,-8.40027 22.32688,0 32.16122,3.07206 49.71146,15.52891 17.78019,12.62007 28.65064,27.21986 35.09437,47.13423 3.6975,11.42714 3.70311,11.48663 3.07223,32.53663 -1.28702,42.94179 -4.59114,59.11808 -15.36575,75.22745 -10.95171,16.37418 -28.39234,28.84771 -48.10712,34.40621 -10.16717,2.86659 -35.21454,4.2522 -44.87236,2.48232 z m 30.62531,-44.67178 c 2.43726,-0.67694 7.04661,-2.9786 10.24301,-5.11478 9.0578,-6.05345 14.1804,-17.31803 17.38438,-38.22822 5.99149,-39.10225 -0.70682,-61.74047 -21.21323,-71.69421 -7.70049,-3.73779 -16.62377,-4.85932 -24.84542,-3.12273 -20.91811,4.41837 -29.38578,15.95864 -34.19008,46.59636 -3.12492,19.92814 -0.98041,41 5.45677,53.61791 3.57115,7.00003 10.66878,14.4126 16.22186,16.94167 5.50709,2.50812 23.43307,3.08977 30.94271,1.004 z"
       id="path36"
       transform="scale(0.75)" />
    <path
       style="fill:#ffd700;fill-opacity:1;stroke-width:1.20506"
       d="m 329.85205,970.54245 c -0.47882,-0.47883 -0.90056,-32.36785 -0.93719,-70.86451 -0.0366,-38.49665 -0.51789,-86.26223 -1.06947,-106.14572 -0.55158,-19.8835 -0.89547,-36.27504 -0.7642,-36.42565 0.75665,-0.86812 19.27096,-2.80141 33.53311,-3.50159 l 16.56958,-0.81346 v 82.73222 82.73222 l 2.71138,-0.005 c 1.49127,-0.003 16.26832,-1.35351 32.8379,-3.00144 33.31678,-3.31352 39.86745,-3.60086 40.98193,-1.7976 1.03774,1.67909 4.39648,35.89075 3.9591,40.32687 -0.43158,4.37734 1.25012,4.037 -41.32585,8.36368 -17.23236,1.7512 -40.008,4.22914 -50.61254,5.50655 -27.12687,3.26765 -34.88419,3.8932 -35.88375,2.89365 z"
       id="path37"
       transform="scale(0.75)" />
    <path
       style="fill:#ffd700;fill-opacity:1;stroke-width:1.20506"
       d="m 665.19329,1238.8016 c -18.51094,-2.5263 -26.53498,-5.7172 -53.62518,-21.3245 -23.57566,-13.5825 -82.76228,-48.7096 -87.9694,-52.2095 -2.65114,-1.782 -24.00496,-14.2229 -47.45295,-27.6464 -39.59654,-22.6684 -73.25922,-42.7068 -93.53911,-55.681 -4.63948,-2.9682 -18.39423,-10.9301 -30.56612,-17.6932 -28.95984,-16.091 -45.11191,-27.2115 -57.90579,-39.8674 -22.41459,-22.1728 -34.37183,-43.03659 -45.28123,-79.00979 -6.05671,-19.97168 -6.59381,-28.98141 -6.61678,-110.99514 l -0.0196,-70.0231 7.53163,-0.78755 c 4.14239,-0.43315 12.78854,-1.13221 19.21365,-1.55346 11.60442,-0.76082 11.68668,-0.74672 12.38283,2.12221 0.38544,1.58847 0.91955,34.34019 1.18691,72.78162 0.54325,78.10861 1.12611,85.49253 8.48425,107.48201 8.218,24.55913 20.84809,44.00248 37.27623,57.3847 6.83086,5.5644 50.82697,32.1654 110.95186,67.084 18.55793,10.7778 44.85837,26.2243 58.44543,34.3255 42.13278,25.1214 76.86916,45.5865 98.21241,57.8623 11.26732,6.4805 25.10833,14.6662 30.75779,18.1904 21.84364,13.6263 37.09608,18.5866 57.1512,18.5866 13.03217,0 22.58357,-1.9014 32.59705,-6.4894 3.31391,-1.5183 22.02247,-12.2643 41.57458,-23.88 19.5521,-11.6157 49.37734,-29.1248 66.27831,-38.909 83.98503,-48.6204 206.10464,-121.8123 213.12564,-127.7359 15.365,-12.96354 26.4737,-30.51418 33.8415,-53.46602 8.6128,-26.83022 8.6559,-27.31786 9.7169,-109.83266 0.5241,-40.76117 1.0071,-74.11121 1.0733,-74.11121 0.066,0 5.4087,0.16479 11.8723,0.36621 6.4636,0.20141 15.5601,-0.0925 20.2145,-0.65324 l 8.4626,-1.01945 -0.346,71.14927 c -0.1985,40.81434 -0.9037,76.03022 -1.6539,82.59734 -2.4409,21.36419 -10.6789,47.92701 -21.213,68.3988 -16.1541,31.39386 -37.1101,51.66636 -76.8614,74.35446 -11.2673,6.4308 -28.6202,16.7147 -38.56195,22.8531 -24.81125,15.3195 -85.19435,51.1325 -107.85289,63.9673 -10.27314,5.8191 -26.27032,15.1913 -35.54928,20.827 -37.71294,22.9056 -93.66454,55.1069 -107.25037,61.7248 -8.47848,4.1301 -18.18009,7.8572 -23.45145,9.0096 -10.79794,2.3606 -33.80316,3.299 -44.63446,1.8207 z"
       id="path38"
       transform="scale(0.75)" />
  </g>
  <path
     style="fill:#004425;fill-opacity:1;stroke-width:0.903795"
     d="m 289.88596,608.30952 c -1.63563,-0.52402 -4.57034,-2.50206 -6.52156,-4.39566 -9.44286,-9.16399 -13.44569,-27.06948 -10.48355,-46.89501 1.7541,-11.74017 3.35671,-17.15388 6.89088,-23.27782 3.56382,-6.17534 8.38459,-9.58262 16.30372,-11.5233 10.5128,-2.5763 17.19855,-0.91977 26.74563,6.62677 6.24046,4.93279 9.51854,13.69164 10.04006,26.82648 0.4259,10.72638 -2.13633,28.84047 -5.23394,37.00218 -2.61154,6.88103 -8.7451,13.18644 -14.85073,15.26683 -5.01144,1.70757 -18.05667,1.91816 -22.89051,0.36953 z"
     id="path21" />
  <path
     style="fill:#004425;fill-opacity:1;stroke-width:0.903795"
     d="m 600.15021,619.02508 c -8.95612,-2.83987 -15.74822,-7.74504 -18.67889,-13.48963 -5.62536,-11.02661 -6.80269,-20.65492 -5.43423,-44.4417 0.71775,-12.47616 1.27872,-16.38393 2.98405,-20.78729 2.74929,-7.09894 8.73617,-13.21415 14.52309,-14.83439 9.51081,-2.66286 24.86748,0.61909 30.83812,6.59056 5.48845,5.48922 6.33876,10.42674 6.77064,39.31518 0.33203,22.20968 0.17564,26.41626 -1.16643,31.37427 -2.18343,8.06625 -5.93758,13.62657 -10.64204,15.76209 -4.48063,2.03391 -13.62373,2.27728 -19.19431,0.51091 z"
     id="path22" />
  <path
     style="fill:#006837;fill-opacity:1;stroke-width:0.903795"
     d="m 288.34085,607.12458 c -6.61326,-3.43245 -12.2827,-12.33084 -14.48849,-22.7402 -4.01051,-18.92602 1.10102,-47.01289 10.11007,-55.55285 4.17077,-3.95361 10.81661,-6.40873 18.59481,-6.86931 6.29113,-0.37253 7.50361,-0.16044 12.18969,2.13224 7.03539,3.4421 12.90801,9.54377 15.1685,15.7601 1.55186,4.26762 1.80019,7.14458 1.75525,20.3354 -0.0796,23.36587 -3.43793,35.55748 -11.82267,42.91938 -5.22678,4.58917 -8.19291,5.4343 -19.05095,5.42809 -7.04849,-0.004 -10.49505,-0.39495 -12.45621,-1.41285 z"
     id="path43" />
  <path
     style="fill:#006837;fill-opacity:1;stroke-width:0.903795"
     d="m 598.7451,618.0776 c -12.50584,-4.60724 -18.08526,-11.06574 -21.29822,-24.6539 -1.18893,-5.02818 -1.35732,-9.58622 -0.94401,-25.55148 0.62757,-24.24093 1.75619,-29.01153 8.62577,-36.46053 4.13906,-4.48819 8.56682,-6.16224 16.25517,-6.14577 13.81098,0.0295 24.72053,5.76124 27.226,14.30401 1.39719,4.76393 2.78199,46.02053 1.86007,55.41614 -1.22345,12.4686 -5.2122,20.54468 -11.43008,23.14269 -3.78147,1.57999 -15.95038,1.54932 -20.2947,-0.0512 z"
     id="path44" />
</svg>
