<?xml version="1.0" encoding="UTF-8" standalone="no"?>
<svg
   width="881.03857pt"
   height="1124.24pt"
   viewBox="0 0 881.03857 1124.24"
   version="1.1"
   id="svg25"
   sodipodi:docname="old-man-footy.svg"
   inkscape:version="1.4 (86a8ad7, 2024-10-11)"
   xmlns:inkscape="http://www.inkscape.org/namespaces/inkscape"
   xmlns:sodipodi="http://sodipodi.sourceforge.net/DTD/sodipodi-0.dtd"
   xmlns="http://www.w3.org/2000/svg"
   xmlns:svg="http://www.w3.org/2000/svg">
  <defs
     id="defs25" />
  <sodipodi:namedview
     id="namedview25"
     pagecolor="#ffffff"
     bordercolor="#000000"
     borderopacity="0.25"
     inkscape:showpageshadow="2"
     inkscape:pageopacity="0.0"
     inkscape:pagecheckerboard="0"
     inkscape:deskcolor="#d1d1d1"
     inkscape:document-units="pt"
     inkscape:zoom="0.55322266"
     inkscape:cx="613.67696"
     inkscape:cy="736.59312"
     inkscape:window-width="5120"
     inkscape:window-height="1351"
     inkscape:window-x="-9"
     inkscape:window-y="-9"
     inkscape:window-maximized="1"
     inkscape:current-layer="svg25" />
  <g
     id="#f8f7f6ff"
     transform="translate(-51.976311,-215.8)">
    <path
       fill="#f8f7f6"
       opacity="1"
       d="m 461.03,244.59 c 20.67,-0.93 41.36,-0.49 62.05,-0.59 15.31,-0.03 30.59,1.14 45.91,1 35.73,0.89 71.29,4.22 106.85,7.55 25.52,2.04 50.91,5.42 76.28,8.88 44.68,6.62 89.21,14.3 133.51,23.09 6.64,1.62 13.59,2.17 20.02,4.57 -0.71,42.63 -0.24,85.27 0.05,127.89 0.24,67.32 0.31,134.64 0.32,201.96 0.15,84.02 0.39,168.05 0.18,252.08 -0.35,29.01 0.03,58.04 -0.67,87.05 -0.99,21.51 -4.06,42.98 -9.8,63.76 -5.73,20.3 -15.72,39.15 -27.47,56.57 -10.27,14.44 -22.82,27.12 -36.45,38.38 -16.29,13.52 -33.05,26.47 -50.36,38.66 -17.25,12.34 -35.35,23.43 -53.24,34.79 -33.68,20.79 -68.36,39.88 -103.01,58.98 -35.57,19.88 -71.54,39.01 -107.19,58.73 -1.03,0.5 -2.38,1.56 -3.42,0.45 -17.91,-10.16 -36.18,-19.68 -54.15,-29.74 -19.43,-10.91 -39.27,-21.07 -58.42,-32.47 -15.18,-8.46 -30.04,-17.48 -45.04,-26.24 -17.6,-10 -35.3,-19.85 -52.57,-30.41 -2.26,-1.62 -5.02,-0.42 -7.45,0.04 -11.85,2.28 -23.85,3.57 -35.87,4.4 -8.4,-0.07 -16.74,1.4 -25.15,1.03 -22.24,0.37 -44.55,-0.73 -66.48,-4.57 -20.26,-3.74 -40.43,-9.91 -57.84,-21.21 -5.81,-3.84 -11.94,-7.49 -16.92,-12.36 4.74,1.29 8.8,4.24 13.21,6.32 11.84,5.83 24.07,11.02 36.92,14.15 23.87,6.1 48.65,6.85 73.16,6.42 42.12,-1.27 83.92,-8.11 124.84,-18 18.15,-4.73 36.22,-9.82 53.92,-16.06 13.74,-4.6 27.52,-9.18 40.8,-15.03 7.97,-3.48 16.08,-6.64 24.15,-9.88 17.95,-7.81 35.69,-16.16 53.18,-24.95 33.43,-17.61 65.65,-37.96 94.06,-62.98 15.88,-13.73 30.4,-29.01 43.75,-45.19 12.45,-15.58 23.64,-32.2 33.39,-49.61 11.68,-21.16 21.43,-43.6 26.61,-67.29 5.34,-24.46 7.98,-49.75 5.34,-74.72 -1.26,-13.1 -4.3,-26.14 -10.2,-37.96 -7.54,-15.61 -20.68,-28.24 -36.36,-35.57 -17.41,-8.79 -37.19,-11.17 -56.46,-11.27 -38.16,0.46 -75.24,12.27 -109.49,28.44 -36.26,17.15 -69.41,40.72 -97.79,69.06 -7.15,7.18 -14.53,14.16 -20.96,22.01 -11.72,13.96 -22.22,28.95 -31.46,44.65 -15.25,25.86 -25.91,54.76 -28.89,84.74 -1.54,17.94 -1.34,36.3 3.47,53.79 5.67,22.92 22.07,42.68 43.13,53.16 13.38,7.5 28.82,9.98 43.92,10.93 11.87,-0.05 23.8,0.46 35.59,-1.3 21.02,-3.14 41.7,-8.71 61.44,-16.6 14.24,-5.28 28.19,-11.37 41.66,-18.39 1.76,-1.05 3.6,-1.99 5.54,-2.66 -2.33,2.8 -5.79,4.25 -8.71,6.32 -18.9,11.88 -38.9,22.01 -59.53,30.54 -23.53,9.38 -48.45,16.3 -73.94,16.45 -12.45,0.37 -24.83,-1.8 -36.9,-4.71 -9.09,-2.18 -17.39,-6.59 -25.59,-10.87 -17.26,12.87 -35.92,23.81 -55.09,33.59 -30.35,15.52 -62.31,28.01 -95.37,36.41 -22.9,5.17 -46.67,8.15 -70.08,5.09 -15.3,-2.23 -30.63,-8.03 -41.71,-19.15 -9.2,-9.39 -15.87,-21.33 -18.64,-34.2 -2.85,-11.77 -3.26,-24.03 -1.9,-36.03 1.79,-25.86 10.27,-50.72 20.75,-74.24 0.3,-0.13 0.9,-0.38 1.2,-0.51 -0.01,5.21 2.11,10.13 2.38,15.28 -8.54,23.87 -15.76,49.36 -12.03,74.92 2.4,16.11 10.05,31.8 22.73,42.29 13.91,11.49 32.9,13.4 50.27,12.76 22.66,-1.53 44.51,-8.52 65.73,-16.26 23.41,-8.93 45.64,-20.71 66.85,-34.02 14.05,-9.03 27.85,-18.6 40.33,-29.73 -15.01,-18.08 -20.19,-42.07 -21.88,-64.96 0.08,-8.32 -0.55,-16.7 0.74,-24.94 -2.62,0.05 -4.13,3.09 -5.68,4.92 -14.31,21.56 -33.31,39.45 -53.09,55.91 -19.23,15.66 -39.61,30.02 -61.58,41.59 -11.06,5.78 -22.41,11.25 -34.51,14.48 -12.98,3.29 -27.57,3.34 -39.34,-3.76 -5.77,-3.51 -8.87,-10.51 -7.91,-17.16 0.67,-4.34 1.84,-8.97 4.77,-12.36 1.39,2.84 2.89,5.63 4.38,8.43 5.21,5.4 12.56,8.99 20.17,8.9 4.22,0.05 8.35,-0.98 12.34,-2.27 -0.94,-2.28 -2.65,-4.08 -3.91,-6.15 -7.25,-11.49 -11.56,-24.45 -16.05,-37.17 -6.67,-19.51 -11.27,-39.82 -12.35,-60.44 0,-27.65 -0.16,-55.31 0.25,-82.96 -0.28,-58.35 0.27,-116.71 0.09,-175.07 0.06,-57.64 0.01,-115.29 -0.28,-172.94 0.56,-80.97 -0.24,-161.94 -0.08,-242.91 17.84,-4.26 35.92,-7.55 53.94,-11 27.25,-4.98 54.56,-9.62 81.96,-13.73 30,-4.17 60.07,-7.72 90.14,-11.37 38.88,-3.91 77.88,-6.83 116.99,-7.45 M 349,270.99 c -35.09,3.64 -70.11,7.99 -104.93,13.77 -28.15,4.9 -56.3,9.96 -84,17.03 -7.32,1.82 -14.75,3.45 -21.66,6.56 -0.27,8.87 -0.17,17.76 -0.25,26.64 -0.31,125.6 -0.27,251.19 0.15,376.79 35.57,19.23 71.33,38.11 107.28,56.65 38.32,19.34 75.91,40.06 113.74,60.32 3.06,1.15 7.34,5.58 10.04,1.76 7.59,-8.44 15.24,-16.85 23.1,-25.04 26.89,-27.83 57.94,-51.85 92.55,-69.31 38.16,-19.86 79.76,-34.72 123.01,-37.13 26.31,-0.82 53.89,2.23 77,15.81 18.13,10.6 32.33,27.41 40.3,46.8 4,10.22 7.29,20.84 8.85,31.72 13.78,-7.03 27.18,-14.84 40.82,-22.17 37.19,-20.47 74.54,-40.66 111.61,-61.35 -0.18,-88.27 -0.43,-176.55 -0.71,-264.83 -0.28,-46.23 -0.83,-92.46 -0.78,-138.69 -3.97,-1.6 -7.86,-3.48 -12.1,-4.27 -20.92,-4.4 -41.96,-8.26 -63.03,-11.89 -19.31,-3.01 -38.54,-6.61 -57.94,-9.11 -49.16,-6.7 -98.45,-12.67 -148.02,-15.04 -6.96,0.18 -13.89,-0.48 -20.82,-0.85 -11.75,-0.13 -23.48,-0.81 -35.23,-0.98 -66.38,-0.9 -132.93,-0.25 -198.98,6.81 m -212,547.8 c -0.12,21.41 0.25,42.81 0.56,64.22 -0.02,1.39 -0.21,2.78 -0.57,4.15 2.45,2.35 5.81,3.32 8.65,5.09 16.28,8.86 32.92,17.05 48.98,26.3 30.9,17.25 62.22,33.73 93.18,50.87 6.27,-6.29 11.75,-13.47 16.69,-20.88 6.3,-9.79 12.64,-19.63 17.65,-30.16 C 302.49,908.3 283.07,897.79 263.69,887.21 230.36,869.23 196.98,851.35 163.75,833.2 154.67,828.7 146.2,823.05 137,818.79 m 738.62,5.98 c -17.28,9.74 -34.64,19.35 -52.04,28.88 -35.14,19.48 -70.21,39.08 -105.32,58.61 -2.06,0.74 -2.45,3 -3.06,4.83 -4.98,15.21 -13.3,28.98 -21.4,42.68 -10.7,18.12 -23.26,35.11 -37.07,50.97 -1.96,2.11 -3.95,4.25 -5.23,6.87 23.98,-12.5 47.33,-26.24 71.1,-39.16 19.1,-10.53 38.02,-21.42 57.33,-31.56 15.99,-8.52 31.53,-17.83 47.49,-26.41 19.44,-11.06 39.28,-21.42 58.8,-32.33 -0.35,-22.78 -0.73,-45.57 -0.24,-68.35 -3.62,1.29 -7.06,3.01 -10.36,4.97 M 138.87,985.76 c 1.86,8.17 4.91,16.03 7.4,24.04 5.35,17.48 11.34,35.02 21.13,50.58 8.16,-4.09 16.24,-8.35 24.15,-12.89 7.08,-4.41 14.59,-8.43 20.69,-14.16 -16.1,-10.69 -32.97,-20.15 -49.31,-30.46 -8.34,-5.24 -15.94,-11.58 -24.06,-17.11 m 695.44,43.44 c -32.07,17.87 -63.79,36.38 -95.96,54.05 -35.5,19.96 -71.15,39.65 -106.75,59.43 -38.03,21.29 -75.91,42.84 -114.01,64.02 -2.5,1.02 -4.7,3.29 -7.49,3.23 -29.46,-17.16 -59.09,-34.09 -88.48,-51.36 -7.8,1.82 -15.4,4.6 -23.05,6.99 -20.06,6.82 -40.34,12.98 -60.72,18.72 l -0.5,0.78 c 6.11,4.22 12.94,7.33 19.25,11.27 18.03,10.85 36.43,21.06 54.7,31.51 19.02,10.73 38.58,20.47 57.54,31.32 15.56,8.45 30.8,17.48 46.58,25.53 33.85,-18.41 68.07,-36.14 101.92,-54.56 37.7,-20.09 74.51,-41.81 111.06,-63.93 32.23,-19.63 63.46,-41.08 92.15,-65.63 12.52,-11.53 24.63,-23.72 34.01,-38.01 12.47,-18.6 21.9,-39.18 28.13,-60.69 -16.12,9.13 -32.16,18.39 -48.38,27.33 z"
       id="path1" />
    <path
       fill="#f8f7f6"
       opacity="1"
       d="m 214.19,340.27 c 11.89,-1.51 24.68,-0.89 35.25,5.31 12.3,7.46 19.56,21.36 21.38,35.35 2.19,17.59 1.11,35.38 1.54,53.07 -0.38,13.05 0.22,26.41 -3.53,39.06 -3.92,13.32 -14.35,24.39 -27.32,29.28 -12.06,4.75 -25.99,5.23 -38.09,0.34 -10.18,-3.96 -18.78,-11.91 -23.24,-21.91 -3.18,-6.79 -4.2,-14.31 -4.96,-21.68 -1.3,-16.67 -0.96,-33.4 -0.8,-50.09 0.72,-9.74 0.09,-19.57 2.36,-29.14 1.9,-12.6 8.34,-24.64 18.73,-32.22 5.49,-3.99 12.02,-6.28 18.68,-7.37 m 5.25,30.3 c -3.31,0.87 -6.52,2.58 -8.55,5.41 -3.55,4.54 -4.35,10.46 -4.83,16.03 -0.45,16.63 -0.42,33.28 -0.39,49.93 0.01,6.93 -0.43,14.06 1.62,20.78 1.38,4.64 4.65,8.54 8.69,11.12 4.71,3.22 11.24,2.84 16.04,0.01 4.59,-2.59 7.13,-7.7 7.89,-12.75 0.96,-7.65 0.93,-15.36 0.92,-23.05 0.23,-14.35 0.23,-28.7 -0.01,-43.04 -0.63,-6.08 -0.6,-12.58 -3.93,-17.95 -3.29,-6.01 -11.08,-8.44 -17.45,-6.49 z"
       id="path2" />
    <path
       fill="#f8f7f6"
       opacity="1"
       d="m 376.08,340.15 c 15.97,0.52 32,-0.66 47.93,0.92 11.58,1.5 24.06,4.66 31.78,14.13 10.57,12.68 12.13,30.02 12.83,45.86 0.19,15.99 0.4,32 -0.6,47.96 -0.35,15.03 -3.54,31.36 -14.73,42.26 -8.94,9.02 -22.31,10.34 -34.29,11.56 -10.69,0.41 -21.4,-0.05 -32.09,0.25 -3.97,0.16 -7.98,0.93 -11.92,0.22 1.43,-54.37 0.78,-108.78 1.09,-163.16 M 406,369.64 c -0.07,33.8 0.22,67.6 -0.33,101.4 -0.03,1.28 -0.28,2.54 -0.48,3.81 4.86,0.18 9.76,0.32 14.62,-0.04 3.41,-0.93 6.81,-2.19 9.79,-4.12 5.31,-4.65 6.91,-11.91 7.3,-18.67 0.77,-20.36 0.77,-40.77 -0.15,-61.12 -0.43,-7.22 -3.74,-14.7 -10.41,-18.15 -6.18,-3.65 -13.52,-2.52 -20.34,-3.11 z"
       id="path3" />
    <path
       fill="#f8f7f6"
       opacity="1"
       d="m 517,339.9 c 12.91,0.22 25.83,0.04 38.75,0.1 6.71,22.05 11.37,44.65 17.02,66.98 1.79,8.02 4.29,15.88 5.6,24.01 0.67,-1.57 1.22,-3.2 1.55,-4.87 6.83,-28.77 14.44,-57.35 21.25,-86.12 12.93,0.04 25.87,-0.09 38.79,0.07 0.16,0.25 0.48,0.76 0.63,1.01 0.34,22.62 0.48,45.25 0.41,67.88 0.43,31.58 1.1,63.16 0.95,94.74 -9.9,-0.29 -19.86,0.28 -29.71,-0.47 0.43,-29.07 -0.11,-58.17 -0.1,-87.25 -0.03,-5.44 -0.29,-10.9 0.38,-16.31 -0.25,-0.18 -0.76,-0.54 -1.01,-0.72 -1.52,8.17 -4.25,16.05 -6.12,24.15 -4.9,20.44 -10.86,40.62 -15.55,61.11 -7.37,-0.07 -14.74,-0.46 -22.09,0.05 -6.71,-27.01 -14.4,-53.76 -21.18,-80.75 -0.43,-1.67 -0.56,-3.5 -1.74,-4.85 0.72,34.75 0.56,69.52 0.87,104.28 -8.2,0.63 -16.45,-0.05 -24.67,0.37 -1.75,-0.02 -5.07,0.32 -4.67,-2.36 -0.04,-53.68 0.43,-107.37 0.64,-161.05 z"
       id="path4" />
    <path
       fill="#f8f7f6"
       opacity="1"
       d="m 685.12,339.87 c 6.54,1.36 13.24,1.36 19.89,0.95 5.41,-1.01 11.19,-1.22 16.56,-0.43 2.08,6.78 3.51,13.74 4.72,20.74 9.71,47.14 18.34,94.5 28.24,141.61 0.22,0.78 0.15,1.56 -0.21,2.32 -8.47,-0.33 -16.94,-0.08 -25.41,-0.08 -1.78,0.41 -1.86,-1.63 -2.21,-2.77 -1.9,-8.79 -3.77,-17.61 -5.51,-26.43 -6.75,0.24 -13.51,0.21 -20.24,-0.32 -4.94,-0.54 -9.91,0.65 -14.81,-0.38 -1.79,9.57 -3.53,19.16 -5.52,28.69 -8.54,0.23 -17.11,-0.59 -25.66,-0.2 -2.26,0.63 -2.61,-1.98 -2.07,-3.55 4.31,-22.09 9,-44.1 13.53,-66.15 6.08,-31.36 12.11,-62.74 18.7,-94 m 17.26,41.18 c -0.15,2 -0.26,4 -0.48,5.99 -3.08,20.51 -7.04,40.86 -10.53,61.3 8.23,0 16.46,0.41 24.7,0.04 -1.45,-4.97 -1.92,-10.16 -2.93,-15.23 -2.88,-17.3 -6.24,-34.5 -9.47,-51.73 -0.32,-0.09 -0.97,-0.28 -1.29,-0.37 z"
       id="path5" />
    <path
       fill="#f8f7f6"
       opacity="1"
       d="m 287.88,340.98 c 10.31,0 20.62,-0.14 30.92,-0.06 -0.58,2.98 -0.65,6.03 -0.63,9.06 0.1,29.66 0.19,59.32 0.52,88.98 0.35,12.03 0.3,24.05 0.34,36.08 14.65,0.02 29.29,-0.16 43.93,-0.13 0.52,9.7 1.03,19.39 1.47,29.1 -24.85,-0.07 -49.69,0.04 -74.54,0.01 -1.25,0.25 -3.08,-0.26 -2.73,-1.89 0.02,-23.38 0.52,-46.76 0.79,-70.13 -0.06,-30.34 0.09,-60.68 -0.07,-91.02 z"
       id="path6" />
    <path
       fill="#f8f7f6"
       opacity="1"
       d="m 767.12,342.08 c 9.58,-0.22 19.18,0.07 28.76,-0.21 l 0.69,0.35 c 10.48,26.4 19.17,53.45 29.21,80.02 1.03,2.16 0.97,5.02 3.22,6.42 -1.64,-28.85 -0.78,-57.77 -1,-86.66 9.66,0.15 19.38,-0.46 29,0.77 -0.44,42.41 1.3,84.79 1,127.2 0.12,12.01 -0.32,24.04 0.45,36.05 -10.05,-0.37 -20.11,0.21 -30.15,-0.09 -1.47,-2.76 -2.61,-5.67 -3.58,-8.64 -8.52,-24 -18.02,-47.64 -26.21,-71.76 -0.68,-2.04 -0.95,-4.32 -2.51,-5.92 0.14,18.14 -0.42,36.29 0.6,54.42 0.17,10.32 0.36,20.64 0.48,30.97 -10.03,0 -20.06,0 -30.08,0 -0.22,-54.31 0.46,-108.61 0.12,-162.92 z"
       id="path7" />
    <path
       fill="#f8f7f6"
       opacity="1"
       d="m 387.59,538.79 c 13.23,-1.63 27.29,-0.11 38.95,6.72 10.07,5.85 14.9,17.5 17.24,28.4 2.49,14.56 3.62,29.39 2.56,44.15 -0.57,15.29 -2.49,31.3 -10.56,44.64 -6.04,10.05 -17.81,14.4 -28.81,16.27 -10.99,2 -22.61,1.16 -33.02,-2.99 -12.25,-5.35 -20.19,-17.41 -23.88,-29.87 -3.87,-13.99 -3.69,-28.67 -3.49,-43.06 0.6,-16.21 1.84,-33.52 11.14,-47.41 6.48,-10.08 18.12,-15.89 29.87,-16.85 m 3.91,28.74 c -3.79,0.92 -7.47,2.82 -9.94,5.9 -3.55,4.37 -4.64,10.08 -5.43,15.5 -0.86,11.66 -0.26,23.37 -0.09,35.05 0.69,7.93 1.8,16.51 7.24,22.74 7.63,8.21 22.57,6.5 28.62,-2.76 4.37,-6.04 4.86,-13.79 5.1,-20.98 -0.16,-11.98 0.52,-24.03 -0.96,-35.95 -0.68,-5.84 -2.59,-12.04 -7.4,-15.79 -4.82,-3.61 -11.26,-5.15 -17.14,-3.71 z"
       id="path8" />
    <path
       fill="#f8f7f6"
       opacity="1"
       d="m 505.64,538.78 c 13.75,-2.11 28.65,-0.47 40.66,6.95 10.28,6.42 15.75,18.08 18.41,29.51 1.19,4.79 1.25,9.73 2.02,14.59 1.21,16.98 1.68,34.17 -1.2,51.01 -2.26,12.04 -8.29,24.12 -18.98,30.74 -12.61,7.79 -28.17,8.79 -42.54,6.93 -12.01,-1.67 -22.96,-9.19 -28.78,-19.83 -6.62,-12.06 -8.3,-26.17 -8.29,-39.73 -0.72,-12.31 -0.44,-24.69 1.02,-36.92 1.38,-13.13 7.01,-26.29 17.4,-34.77 5.85,-4.57 12.99,-7.29 20.28,-8.48 m 6.85,28.77 c -4.24,1.06 -8.15,3.63 -10.45,7.39 -3.35,5.37 -4.17,11.81 -4.93,17.97 -0.38,10.71 -0.24,21.44 -0.02,32.15 1,8.09 1.57,17.82 8.72,23.08 5.08,2.7 11.38,5.01 17.01,2.63 6.87,-1.82 12.1,-7.85 13.64,-14.69 2.5,-10.5 1.23,-21.39 1.53,-32.07 -0.48,-9.58 -0.46,-19.85 -5.43,-28.39 -3.97,-6.72 -12.54,-10.26 -20.07,-8.07 z"
       id="path9" />
    <path
       fill="#f8f7f6"
       opacity="1"
       d="m 253.19,540.02 c 23.96,0.22 47.92,0.38 71.88,0.15 1.84,-0.45 1.47,1.69 1.54,2.78 0.03,8 0.26,16 0.31,24.01 -14.99,-0.1 -29.98,0.17 -44.95,0.84 0.3,9.28 -0.47,18.72 0.4,27.91 11.55,-0.63 23.13,-0.39 34.7,-0.39 0.98,0.19 3.09,-0.51 3.16,1.1 0.73,9.15 0.48,18.37 0.71,27.55 -8.3,-0.49 -16.62,-0.28 -24.92,-0.15 -4.72,0.17 -9.5,-0.1 -14.15,0.9 0.26,18.07 0.08,36.14 0.13,54.22 -9.36,-0.41 -18.72,-0.12 -28.07,-0.16 -0.7,-14.25 -0.37,-28.56 -0.57,-42.83 -0.05,-31.98 -0.51,-63.96 -0.17,-95.93 z"
       id="path10" />
    <path
       fill="#f8f7f6"
       opacity="1"
       d="m 577.01,540 c 29.68,0.06 59.37,-0.13 89.05,0.1 1.13,9.27 0.96,18.6 1.08,27.92 -10.11,-0.33 -20.23,0.07 -30.34,-0.07 -1.22,8.3 -0.25,16.72 -0.24,25.07 0.85,20.64 0.16,41.32 0.67,61.97 0.3,7.39 -0.34,14.85 0.72,22.19 -9,0.52 -18.03,0.12 -27.04,0.34 -1.42,0.32 -3.2,-0.84 -2.89,-2.41 -0.06,-21.71 0.01,-43.42 -0.04,-65.13 -0.36,-14 -0.7,-28 -0.83,-42 -8.07,0.06 -16.13,-0.55 -24.19,-0.22 -1.79,-0.09 -3.67,0.37 -5.38,-0.17 C 577.1,558.4 576.9,549.2 577.01,540 Z"
       id="path11" />
    <path
       fill="#f8f7f6"
       opacity="1"
       d="m 675.75,540.14 c 10.76,-0.22 21.54,0.18 32.3,-0.15 7.56,15.41 14.46,31.16 21.38,46.87 l 0.58,0.59 c 7.99,-15.55 15.98,-31.35 23.35,-47.3 10.09,0.47 20.2,0.07 30.29,0.38 0.13,0.28 0.41,0.85 0.55,1.14 -13.9,26.95 -26.14,54.71 -40.1,81.62 0.77,17.89 0.43,35.81 0.78,53.7 -9.29,0.12 -18.59,0.22 -27.89,0.07 -0.06,-18.7 -0.34,-37.41 -1.15,-56.07 -11.35,-23.81 -23.29,-47.34 -34.73,-71.1 -1.57,-3.37 -4.03,-6.27 -5.36,-9.75 z"
       id="path12" />
    <path
       fill="#f8f7f6"
       opacity="1"
       d="m 565.61,741.48 c 19.76,-4.91 40,-9.04 60.47,-8.13 5.77,0.33 11.46,1.4 17.22,1.87 -1.25,1.75 -3.6,1.76 -5.42,2.56 -14.57,4.6 -28.64,10.55 -42.97,15.81 -8.33,-4.18 -17.42,-7.59 -26.9,-6.98 1.26,1.86 3.41,2.77 5.13,4.14 3.47,2.45 6.34,5.72 10.16,7.68 -5.36,2.78 -10.38,6.3 -16.06,8.41 -10.23,-3.41 -21.33,-5.12 -31.96,-2.61 0.49,1.42 2.14,1.59 3.33,2.18 5.68,2.29 11.42,4.45 17.21,6.47 -6.56,4.4 -13.18,8.71 -19.55,13.38 -1.72,1.7 -4.15,0.22 -6.18,0.03 -9.12,-1.64 -18.66,-3.99 -27.86,-1.77 -0.25,0.25 -0.75,0.77 -0.99,1.03 7.51,3.29 14.86,7 22.55,9.88 -10.76,7.42 -20.88,15.73 -31.18,23.73 -2.22,-1.96 -4.87,-3.35 -7.12,-5.27 -2.22,0.29 -3.97,1.75 -5.85,2.84 -8.38,5.03 -16.33,10.78 -23.87,17 -7.59,6.42 -13.97,14.09 -21.03,21.06 -9.19,10.29 -17.86,21.07 -25.5,32.57 -9.29,13.8 -18.65,27.8 -24.43,43.5 -9.43,23.53 -13.08,48.97 -13.81,74.17 -0.39,5.1 0.88,10.13 0.49,15.23 -1.14,-3.16 -1.37,-6.53 -1.72,-9.82 -3.53,-27.51 -1.82,-55.82 6.16,-82.44 4.59,-16.55 11.67,-32.28 19.86,-47.35 9.14,-17.33 18.66,-34.58 30.53,-50.22 10.53,-13.13 23.17,-24.39 36.09,-35.11 14.61,-11.71 30.14,-22.33 46.61,-31.24 18.08,-9.3 36.9,-17.38 56.59,-22.6 z"
       id="path13" />
    <path
       fill="#f8f7f6"
       opacity="1"
       d="m 649.12,753.84 c 8.55,-0.92 18.36,-3.65 25.85,2.11 8.02,4.28 12.49,12.67 14.76,21.15 3.43,12.68 3.95,25.99 2.52,39.01 -0.6,13.22 -3.51,26.2 -7.13,38.89 -6.24,22.3 -16.32,43.5 -29.44,62.56 -23.24,33.46 -54.48,60.67 -88.67,82.49 -17.79,10.99 -36.58,20.38 -56.12,27.85 -12.75,4.77 -26.2,8.21 -39.89,8.1 -10.25,-0.52 -21.62,-3.49 -27.61,-12.57 -5.88,-9.32 -7.12,-20.7 -7.34,-31.49 0.68,-24.19 7.83,-47.72 17.15,-69.89 5.97,-13.8 12.96,-27.16 20.75,-40.02 9.32,-15.12 20.4,-29.79 35.47,-39.6 3.07,-2.34 6.81,-3.61 9.9,-5.89 -5.89,-2.93 -11.18,-6.95 -17.24,-9.56 12.17,-9.21 24.95,-17.62 38.32,-24.98 6.32,3.24 12.94,5.89 19.05,9.53 1.99,0.6 4.17,1.65 6.27,1.17 0.98,-1.14 -0.59,-2.18 -1.09,-3.11 -4.57,-5.71 -10.63,-10.17 -17.33,-13.06 8.31,-4.76 16.33,-10.02 24.76,-14.55 7.18,2.97 13.95,6.83 21.02,10.03 2.66,1.11 5.11,2.9 8.06,3.17 0.08,-2.77 -2.05,-4.74 -3.35,-6.96 -3.27,-5.38 -8.6,-9.12 -14.26,-11.66 4.99,-2.76 10.4,-4.77 15.66,-6.97 7.31,3.03 13.1,9.29 20.89,11.27 1.99,-0.97 0.1,-3.21 -0.67,-4.38 -3.28,-3.99 -6.95,-7.67 -10.79,-11.1 1.53,-1.31 3.53,-1.74 5.38,-2.41 11.45,-3.92 23,-7.92 35.12,-9.13 z"
       id="path14" />
  </g>
  <g
     id="#080808ff"
     transform="translate(-51.976311,-215.8)">
    <path
       fill="#080808"
       opacity="1"
       d="m 441.52,216.82 c 22.82,-0.91 45.67,-0.84 68.51,-1.02 15.99,0.45 32.02,-0.26 47.99,0.95 68.28,1.74 136.3,8.42 203.98,17.46 45.76,6.75 91.23,15.41 136.62,24.32 10.65,2.4 21.51,3.97 32.04,6.88 0.64,1.42 0.22,3.08 0.38,4.6 0.51,47.32 0.46,94.64 0.77,141.96 0.36,36.02 0.09,72.04 0.22,108.07 0.14,59.32 0.57,118.64 0.62,177.96 0.12,54.03 0.52,108.05 0.3,162.07 -1.09,29.32 -0.82,58.67 -1.01,88.01 -0.7,20.44 -0.9,41.08 -5.69,61.07 -4.97,21.48 -10.99,42.97 -21.5,62.47 -5.22,9.86 -11.14,19.36 -17.97,28.19 -6.85,9.06 -15.02,16.98 -22.92,25.1 -13.43,13.77 -29.27,24.82 -44.26,36.79 -7.85,5.79 -15.55,11.77 -23.44,17.51 -8.15,5.98 -16.93,11.01 -25.34,16.61 -18.28,11.81 -36.64,23.51 -55.36,34.6 -15.89,9.71 -32.32,18.48 -48.64,27.44 -33.03,18.34 -66.1,36.62 -99.3,54.65 -16.84,9.24 -33.63,18.59 -50.62,27.53 -4.81,-1.31 -8.91,-4.46 -13.44,-6.51 -19.53,-10.43 -39.01,-20.98 -58.46,-31.56 -16.2,-8.7 -32.43,-17.35 -48.23,-26.75 -26.7,-15.29 -53.47,-30.45 -80.25,-45.59 -10.72,-6.01 -21.82,-11.33 -32.21,-17.9 -1.22,-1.07 -2.9,-0.77 -4.35,-0.59 -15.22,2.36 -30.64,2.61 -45.97,3.77 -21.14,0.52 -42.34,-0.79 -63.19,-4.34 -22.62,-4.14 -45.31,-10.26 -65.11,-22.32 -20.74,-12.83 -37.18,-32.59 -45.45,-55.58 -4.59,-13.08 -7.42,-26.8 -8.14,-40.65 -1.02,-27.86 4.36,-55.56 12.76,-82.02 6.74,-20.72 16.48,-40.27 24.91,-60.31 1.92,-18.15 1.5,-36.45 1.7,-54.68 0.15,-56.98 0.59,-113.97 0.53,-170.96 -0.01,-112.69 0.04,-225.38 -0.05,-338.08 -0.09,-29.31 -0.41,-58.61 -0.27,-87.92 0.06,-10.68 -0.29,-21.36 0.28,-32.03 -0.22,-2.28 2.6,-2.02 4.08,-2.6 58.44,-12.77 117.45,-22.96 176.73,-30.89 30.36,-4.43 60.84,-7.84 91.35,-10.84 25.72,-2.61 51.52,-4.81 77.4,-4.87 m 19.51,27.77 c -39.11,0.62 -78.11,3.54 -116.99,7.45 -30.07,3.65 -60.14,7.2 -90.14,11.37 -27.4,4.11 -54.71,8.75 -81.96,13.73 -18.02,3.45 -36.1,6.74 -53.94,11 -0.16,80.97 0.64,161.94 0.08,242.91 0.29,57.65 0.34,115.3 0.28,172.94 0.18,58.36 -0.37,116.72 -0.09,175.07 -0.41,27.65 -0.25,55.31 -0.25,82.96 1.08,20.62 5.68,40.93 12.35,60.44 4.49,12.72 8.8,25.68 16.05,37.17 1.26,2.07 2.97,3.87 3.91,6.15 -3.99,1.29 -8.12,2.32 -12.34,2.27 -7.61,0.09 -14.96,-3.5 -20.17,-8.9 -1.49,-2.8 -2.99,-5.59 -4.38,-8.43 -2.93,3.39 -4.1,8.02 -4.77,12.36 -0.96,6.65 2.14,13.65 7.91,17.16 11.77,7.1 26.36,7.05 39.34,3.76 12.1,-3.23 23.45,-8.7 34.51,-14.48 21.97,-11.57 42.35,-25.93 61.58,-41.59 19.78,-16.46 38.78,-34.35 53.09,-55.91 1.55,-1.83 3.06,-4.87 5.68,-4.92 -1.29,8.24 -0.66,16.62 -0.74,24.94 1.69,22.89 6.87,46.88 21.88,64.96 -12.48,11.13 -26.28,20.7 -40.33,29.73 -21.21,13.31 -43.44,25.09 -66.85,34.02 -21.22,7.74 -43.07,14.73 -65.73,16.26 -17.37,0.64 -36.36,-1.27 -50.27,-12.76 -12.68,-10.49 -20.33,-26.18 -22.73,-42.29 -3.73,-25.56 3.49,-51.05 12.03,-74.92 -0.27,-5.15 -2.39,-10.07 -2.38,-15.28 -0.3,0.13 -0.9,0.38 -1.2,0.51 -10.48,23.52 -18.96,48.38 -20.75,74.24 -1.36,12 -0.95,24.26 1.9,36.03 2.77,12.87 9.44,24.81 18.64,34.2 11.08,11.12 26.41,16.92 41.71,19.15 23.41,3.06 47.18,0.08 70.08,-5.09 33.06,-8.4 65.02,-20.89 95.37,-36.41 19.17,-9.78 37.83,-20.72 55.09,-33.59 8.2,4.28 16.5,8.69 25.59,10.87 12.07,2.91 24.45,5.08 36.9,4.71 25.49,-0.15 50.41,-7.07 73.94,-16.45 20.63,-8.53 40.63,-18.66 59.53,-30.54 2.92,-2.07 6.38,-3.52 8.71,-6.32 -1.94,0.67 -3.78,1.61 -5.54,2.66 -13.47,7.02 -27.42,13.11 -41.66,18.39 -19.74,7.89 -40.42,13.46 -61.44,16.6 -11.79,1.76 -23.72,1.25 -35.59,1.3 -15.1,-0.95 -30.54,-3.43 -43.92,-10.93 -21.06,-10.48 -37.46,-30.24 -43.13,-53.16 -4.81,-17.49 -5.01,-35.85 -3.47,-53.79 2.98,-29.98 13.64,-58.88 28.89,-84.74 9.24,-15.7 19.74,-30.69 31.46,-44.65 6.43,-7.85 13.81,-14.83 20.96,-22.01 28.38,-28.34 61.53,-51.91 97.79,-69.06 34.25,-16.17 71.33,-27.98 109.49,-28.44 19.27,0.1 39.05,2.48 56.46,11.27 15.68,7.33 28.82,19.96 36.36,35.57 5.9,11.82 8.94,24.86 10.2,37.96 2.64,24.97 0,50.26 -5.34,74.72 -5.18,23.69 -14.93,46.13 -26.61,67.29 -9.75,17.41 -20.94,34.03 -33.39,49.61 -13.35,16.18 -27.87,31.46 -43.75,45.19 -28.41,25.02 -60.63,45.37 -94.06,62.98 -17.49,8.79 -35.23,17.14 -53.18,24.95 -8.07,3.24 -16.18,6.4 -24.15,9.88 -13.28,5.85 -27.06,10.43 -40.8,15.03 -17.7,6.24 -35.77,11.33 -53.92,16.06 -40.92,9.89 -82.72,16.73 -124.84,18 -24.51,0.43 -49.29,-0.32 -73.16,-6.42 -12.85,-3.13 -25.08,-8.32 -36.92,-14.15 -4.41,-2.08 -8.47,-5.03 -13.21,-6.32 4.98,4.87 11.11,8.52 16.92,12.36 17.41,11.3 37.58,17.47 57.84,21.21 21.93,3.84 44.24,4.94 66.48,4.57 8.41,0.37 16.75,-1.1 25.15,-1.03 12.02,-0.83 24.02,-2.12 35.87,-4.4 2.43,-0.46 5.19,-1.66 7.45,-0.04 17.27,10.56 34.97,20.41 52.57,30.41 15,8.76 29.86,17.78 45.04,26.24 19.15,11.4 38.99,21.56 58.42,32.47 17.97,10.06 36.24,19.58 54.15,29.74 1.04,1.11 2.39,0.05 3.42,-0.45 35.65,-19.72 71.62,-38.85 107.19,-58.73 34.65,-19.1 69.33,-38.19 103.01,-58.98 17.89,-11.36 35.99,-22.45 53.24,-34.79 17.31,-12.19 34.07,-25.14 50.36,-38.66 13.63,-11.26 26.18,-23.94 36.45,-38.38 11.75,-17.42 21.74,-36.27 27.47,-56.57 5.74,-20.78 8.81,-42.25 9.8,-63.76 0.7,-29.01 0.32,-58.04 0.67,-87.05 0.21,-84.03 -0.03,-168.06 -0.18,-252.08 -0.01,-67.32 -0.08,-134.64 -0.32,-201.96 -0.29,-42.62 -0.76,-85.26 -0.05,-127.89 -6.43,-2.4 -13.38,-2.95 -20.02,-4.57 -44.3,-8.79 -88.83,-16.47 -133.51,-23.09 -25.37,-3.46 -50.76,-6.84 -76.28,-8.88 -35.56,-3.33 -71.12,-6.66 -106.85,-7.55 -15.32,0.14 -30.6,-1.03 -45.91,-1 -20.69,0.1 -41.38,-0.34 -62.05,0.59 m 104.58,496.89 c -19.69,5.22 -38.51,13.3 -56.59,22.6 -16.47,8.91 -32,19.53 -46.61,31.24 -12.92,10.72 -25.56,21.98 -36.09,35.11 -11.87,15.64 -21.39,32.89 -30.53,50.22 -8.19,15.07 -15.27,30.8 -19.86,47.35 -7.98,26.62 -9.69,54.93 -6.16,82.44 0.35,3.29 0.58,6.66 1.72,9.82 0.39,-5.1 -0.88,-10.13 -0.49,-15.23 0.73,-25.2 4.38,-50.64 13.81,-74.17 5.78,-15.7 15.14,-29.7 24.43,-43.5 7.64,-11.5 16.31,-22.28 25.5,-32.57 7.06,-6.97 13.44,-14.64 21.03,-21.06 7.54,-6.22 15.49,-11.97 23.87,-17 1.88,-1.09 3.63,-2.55 5.85,-2.84 2.25,1.92 4.9,3.31 7.12,5.27 10.3,-8 20.42,-16.31 31.18,-23.73 -7.69,-2.88 -15.04,-6.59 -22.55,-9.88 0.24,-0.26 0.74,-0.78 0.99,-1.03 9.2,-2.22 18.74,0.13 27.86,1.77 2.03,0.19 4.46,1.67 6.18,-0.03 6.37,-4.67 12.99,-8.98 19.55,-13.38 -5.79,-2.02 -11.53,-4.18 -17.21,-6.47 -1.19,-0.59 -2.84,-0.76 -3.33,-2.18 10.63,-2.51 21.73,-0.8 31.96,2.61 5.68,-2.11 10.7,-5.63 16.06,-8.41 -3.82,-1.96 -6.69,-5.23 -10.16,-7.68 -1.72,-1.37 -3.87,-2.28 -5.13,-4.14 9.48,-0.61 18.57,2.8 26.9,6.98 14.33,-5.26 28.4,-11.21 42.97,-15.81 1.82,-0.8 4.17,-0.81 5.42,-2.56 -5.76,-0.47 -11.45,-1.54 -17.22,-1.87 -20.47,-0.91 -40.71,3.22 -60.47,8.13 m 83.51,12.36 c -12.12,1.21 -23.67,5.21 -35.12,9.13 -1.85,0.67 -3.85,1.1 -5.38,2.41 3.84,3.43 7.51,7.11 10.79,11.1 0.77,1.17 2.66,3.41 0.67,4.38 -7.79,-1.98 -13.58,-8.24 -20.89,-11.27 -5.26,2.2 -10.67,4.21 -15.66,6.97 5.66,2.54 10.99,6.28 14.26,11.66 1.3,2.22 3.43,4.19 3.35,6.96 -2.95,-0.27 -5.4,-2.06 -8.06,-3.17 -7.07,-3.2 -13.84,-7.06 -21.02,-10.03 -8.43,4.53 -16.45,9.79 -24.76,14.55 6.7,2.89 12.76,7.35 17.33,13.06 0.5,0.93 2.07,1.97 1.09,3.11 -2.1,0.48 -4.28,-0.57 -6.27,-1.17 -6.11,-3.64 -12.73,-6.29 -19.05,-9.53 -13.37,7.36 -26.15,15.77 -38.32,24.98 6.06,2.61 11.35,6.63 17.24,9.56 -3.09,2.28 -6.83,3.55 -9.9,5.89 -15.07,9.81 -26.15,24.48 -35.47,39.6 -7.79,12.86 -14.78,26.22 -20.75,40.02 -9.32,22.17 -16.47,45.7 -17.15,69.89 0.22,10.79 1.46,22.17 7.34,31.49 5.99,9.08 17.36,12.05 27.61,12.57 13.69,0.11 27.14,-3.33 39.89,-8.1 19.54,-7.47 38.33,-16.86 56.12,-27.85 34.19,-21.82 65.43,-49.03 88.67,-82.49 13.12,-19.06 23.2,-40.26 29.44,-62.56 3.62,-12.69 6.53,-25.67 7.13,-38.89 1.43,-13.02 0.91,-26.33 -2.52,-39.01 -2.27,-8.48 -6.74,-16.87 -14.76,-21.15 -7.49,-5.76 -17.3,-3.03 -25.85,-2.11 z"
       id="path15" />
    <path
       fill="#080808"
       opacity="1"
       d="m 349,270.99 c 66.05,-7.06 132.6,-7.71 198.98,-6.81 11.75,0.17 23.48,0.85 35.23,0.98 6.93,0.37 13.86,1.03 20.82,0.85 49.57,2.37 98.86,8.34 148.02,15.04 19.4,2.5 38.63,6.1 57.94,9.11 21.07,3.63 42.11,7.49 63.03,11.89 4.24,0.79 8.13,2.67 12.1,4.27 -0.05,46.23 0.5,92.46 0.78,138.69 0.28,88.28 0.53,176.56 0.71,264.83 -37.07,20.69 -74.42,40.88 -111.61,61.35 -13.64,7.33 -27.04,15.14 -40.82,22.17 -1.56,-10.88 -4.85,-21.5 -8.85,-31.72 -7.97,-19.39 -22.17,-36.2 -40.3,-46.8 -23.11,-13.58 -50.69,-16.63 -77,-15.81 -43.25,2.41 -84.85,17.27 -123.01,37.13 -34.61,17.46 -65.66,41.48 -92.55,69.31 -7.86,8.19 -15.51,16.6 -23.1,25.04 -2.7,3.82 -6.98,-0.61 -10.04,-1.76 -37.83,-20.26 -75.42,-40.98 -113.74,-60.32 -35.95,-18.54 -71.71,-37.42 -107.28,-56.65 -0.42,-125.6 -0.46,-251.19 -0.15,-376.79 0.08,-8.88 -0.02,-17.77 0.25,-26.64 6.91,-3.11 14.34,-4.74 21.66,-6.56 27.7,-7.07 55.85,-12.13 84,-17.03 34.82,-5.78 69.84,-10.13 104.93,-13.77 m -134.81,69.28 c -6.66,1.09 -13.19,3.38 -18.68,7.37 -10.39,7.58 -16.83,19.62 -18.73,32.22 -2.27,9.57 -1.64,19.4 -2.36,29.14 -0.16,16.69 -0.5,33.42 0.8,50.09 0.76,7.37 1.78,14.89 4.96,21.68 4.46,10 13.06,17.95 23.24,21.91 12.1,4.89 26.03,4.41 38.09,-0.34 12.97,-4.89 23.4,-15.96 27.32,-29.28 3.75,-12.65 3.15,-26.01 3.53,-39.06 -0.43,-17.69 0.65,-35.48 -1.54,-53.07 -1.82,-13.99 -9.08,-27.89 -21.38,-35.35 -10.57,-6.2 -23.36,-6.82 -35.25,-5.31 m 161.89,-0.12 c -0.31,54.38 0.34,108.79 -1.09,163.16 3.94,0.71 7.95,-0.06 11.92,-0.22 10.69,-0.3 21.4,0.16 32.09,-0.25 11.98,-1.22 25.35,-2.54 34.29,-11.56 11.19,-10.9 14.38,-27.23 14.73,-42.26 1,-15.96 0.79,-31.97 0.6,-47.96 -0.7,-15.84 -2.26,-33.18 -12.83,-45.86 -7.72,-9.47 -20.2,-12.63 -31.78,-14.13 -15.93,-1.58 -31.96,-0.4 -47.93,-0.92 M 517,339.9 c -0.21,53.68 -0.68,107.37 -0.64,161.05 -0.4,2.68 2.92,2.34 4.67,2.36 8.22,-0.42 16.47,0.26 24.67,-0.37 -0.31,-34.76 -0.15,-69.53 -0.87,-104.28 1.18,1.35 1.31,3.18 1.74,4.85 6.78,26.99 14.47,53.74 21.18,80.75 7.35,-0.51 14.72,-0.12 22.09,-0.05 4.69,-20.49 10.65,-40.67 15.55,-61.11 1.87,-8.1 4.6,-15.98 6.12,-24.15 0.25,0.18 0.76,0.54 1.01,0.72 -0.67,5.41 -0.41,10.87 -0.38,16.31 -0.01,29.08 0.53,58.18 0.1,87.25 9.85,0.75 19.81,0.18 29.71,0.47 0.15,-31.58 -0.52,-63.16 -0.95,-94.74 0.07,-22.63 -0.07,-45.26 -0.41,-67.88 -0.15,-0.25 -0.47,-0.76 -0.63,-1.01 -12.92,-0.16 -25.86,-0.03 -38.79,-0.07 -6.81,28.77 -14.42,57.35 -21.25,86.12 -0.33,1.67 -0.88,3.3 -1.55,4.87 -1.31,-8.13 -3.81,-15.99 -5.6,-24.01 -5.65,-22.33 -10.31,-44.93 -17.02,-66.98 -12.92,-0.06 -25.84,0.12 -38.75,-0.1 m 168.12,-0.03 c -6.59,31.26 -12.62,62.64 -18.7,94 -4.53,22.05 -9.22,44.06 -13.53,66.15 -0.54,1.57 -0.19,4.18 2.07,3.55 8.55,-0.39 17.12,0.43 25.66,0.2 1.99,-9.53 3.73,-19.12 5.52,-28.69 4.9,1.03 9.87,-0.16 14.81,0.38 6.73,0.53 13.49,0.56 20.24,0.32 1.74,8.82 3.61,17.64 5.51,26.43 0.35,1.14 0.43,3.18 2.21,2.77 8.47,0 16.94,-0.25 25.41,0.08 0.36,-0.76 0.43,-1.54 0.21,-2.32 -9.9,-47.11 -18.53,-94.47 -28.24,-141.61 -1.21,-7 -2.64,-13.96 -4.72,-20.74 -5.37,-0.79 -11.15,-0.58 -16.56,0.43 -6.65,0.41 -13.35,0.41 -19.89,-0.95 m -397.24,1.11 c 0.16,30.34 0.01,60.68 0.07,91.02 -0.27,23.37 -0.77,46.75 -0.79,70.13 -0.35,1.63 1.48,2.14 2.73,1.89 24.85,0.03 49.69,-0.08 74.54,-0.01 -0.44,-9.71 -0.95,-19.4 -1.47,-29.1 -14.64,-0.03 -29.28,0.15 -43.93,0.13 -0.04,-12.03 0.01,-24.05 -0.34,-36.08 -0.33,-29.66 -0.42,-59.32 -0.52,-88.98 -0.02,-3.03 0.05,-6.08 0.63,-9.06 -10.3,-0.08 -20.61,0.06 -30.92,0.06 m 479.24,1.1 c 0.34,54.31 -0.34,108.61 -0.12,162.92 10.02,0 20.05,0 30.08,0 -0.12,-10.33 -0.31,-20.65 -0.48,-30.97 -1.02,-18.13 -0.46,-36.28 -0.6,-54.42 1.56,1.6 1.83,3.88 2.51,5.92 8.19,24.12 17.69,47.76 26.21,71.76 0.97,2.97 2.11,5.88 3.58,8.64 10.04,0.3 20.1,-0.28 30.15,0.09 -0.77,-12.01 -0.33,-24.04 -0.45,-36.05 0.3,-42.41 -1.44,-84.79 -1,-127.2 -9.62,-1.23 -19.34,-0.62 -29,-0.77 0.22,28.89 -0.64,57.81 1,86.66 -2.25,-1.4 -2.19,-4.26 -3.22,-6.42 -10.04,-26.57 -18.73,-53.62 -29.21,-80.02 l -0.69,-0.35 c -9.58,0.28 -19.18,-0.01 -28.76,0.21 M 387.59,538.79 c -11.75,0.96 -23.39,6.77 -29.87,16.85 -9.3,13.89 -10.54,31.2 -11.14,47.41 -0.2,14.39 -0.38,29.07 3.49,43.06 3.69,12.46 11.63,24.52 23.88,29.87 10.41,4.15 22.03,4.99 33.02,2.99 11,-1.87 22.77,-6.22 28.81,-16.27 8.07,-13.34 9.99,-29.35 10.56,-44.64 1.06,-14.76 -0.07,-29.59 -2.56,-44.15 -2.34,-10.9 -7.17,-22.55 -17.24,-28.4 -11.66,-6.83 -25.72,-8.35 -38.95,-6.72 m 118.05,-0.01 c -7.29,1.19 -14.43,3.91 -20.28,8.48 -10.39,8.48 -16.02,21.64 -17.4,34.77 -1.46,12.23 -1.74,24.61 -1.02,36.92 -0.01,13.56 1.67,27.67 8.29,39.73 5.82,10.64 16.77,18.16 28.78,19.83 14.37,1.86 29.93,0.86 42.54,-6.93 10.69,-6.62 16.72,-18.7 18.98,-30.74 2.88,-16.84 2.41,-34.03 1.2,-51.01 -0.77,-4.86 -0.83,-9.8 -2.02,-14.59 -2.66,-11.43 -8.13,-23.09 -18.41,-29.51 -12.01,-7.42 -26.91,-9.06 -40.66,-6.95 m -252.45,1.24 c -0.34,31.97 0.12,63.95 0.17,95.93 0.2,14.27 -0.13,28.58 0.57,42.83 9.35,0.04 18.71,-0.25 28.07,0.16 -0.05,-18.08 0.13,-36.15 -0.13,-54.22 4.65,-1 9.43,-0.73 14.15,-0.9 8.3,-0.13 16.62,-0.34 24.92,0.15 -0.23,-9.18 0.02,-18.4 -0.71,-27.55 -0.07,-1.61 -2.18,-0.91 -3.16,-1.1 -11.57,0 -23.15,-0.24 -34.7,0.39 -0.87,-9.19 -0.1,-18.63 -0.4,-27.91 14.97,-0.67 29.96,-0.94 44.95,-0.84 -0.05,-8.01 -0.28,-16.01 -0.31,-24.01 -0.07,-1.09 0.3,-3.23 -1.54,-2.78 -23.96,0.23 -47.92,0.07 -71.88,-0.15 M 577.01,540 c -0.11,9.2 0.09,18.4 0.57,27.59 1.71,0.54 3.59,0.08 5.38,0.17 8.06,-0.33 16.12,0.28 24.19,0.22 0.13,14 0.47,28 0.83,42 0.05,21.71 -0.02,43.42 0.04,65.13 -0.31,1.57 1.47,2.73 2.89,2.41 9.01,-0.22 18.04,0.18 27.04,-0.34 -1.06,-7.34 -0.42,-14.8 -0.72,-22.19 -0.51,-20.65 0.18,-41.33 -0.67,-61.97 -0.01,-8.35 -0.98,-16.77 0.24,-25.07 10.11,0.14 20.23,-0.26 30.34,0.07 -0.12,-9.32 0.05,-18.65 -1.08,-27.92 -29.68,-0.23 -59.37,-0.04 -89.05,-0.1 m 98.74,0.14 c 1.33,3.48 3.79,6.38 5.36,9.75 11.44,23.76 23.38,47.29 34.73,71.1 0.81,18.66 1.09,37.37 1.15,56.07 9.3,0.15 18.6,0.05 27.89,-0.07 -0.35,-17.89 -0.01,-35.81 -0.78,-53.7 13.96,-26.91 26.2,-54.67 40.1,-81.62 -0.14,-0.29 -0.42,-0.86 -0.55,-1.14 -10.09,-0.31 -20.2,0.09 -30.29,-0.38 -7.37,15.95 -15.36,31.75 -23.35,47.3 l -0.58,-0.59 c -6.92,-15.71 -13.82,-31.46 -21.38,-46.87 -10.76,0.33 -21.54,-0.07 -32.3,0.15 z"
       id="path16" />
    <path
       fill="#080808"
       opacity="1"
       d="m 219.44,370.57 c 6.37,-1.95 14.16,0.48 17.45,6.49 3.33,5.37 3.3,11.87 3.93,17.95 0.24,14.34 0.24,28.69 0.01,43.04 0.01,7.69 0.04,15.4 -0.92,23.05 -0.76,5.05 -3.3,10.16 -7.89,12.75 -4.8,2.83 -11.33,3.21 -16.04,-0.01 -4.04,-2.58 -7.31,-6.48 -8.69,-11.12 -2.05,-6.72 -1.61,-13.85 -1.62,-20.78 -0.03,-16.65 -0.06,-33.3 0.39,-49.93 0.48,-5.57 1.28,-11.49 4.83,-16.03 2.03,-2.83 5.24,-4.54 8.55,-5.41 z"
       id="path17" />
    <path
       fill="#080808"
       opacity="1"
       d="m 406,369.64 c 6.82,0.59 14.16,-0.54 20.34,3.11 6.67,3.45 9.98,10.93 10.41,18.15 0.92,20.35 0.92,40.76 0.15,61.12 -0.39,6.76 -1.99,14.02 -7.3,18.67 -2.98,1.93 -6.38,3.19 -9.79,4.12 -4.86,0.36 -9.76,0.22 -14.62,0.04 0.2,-1.27 0.45,-2.53 0.48,-3.81 0.55,-33.8 0.26,-67.6 0.33,-101.4 z"
       id="path18" />
    <path
       fill="#080808"
       opacity="1"
       d="m 702.38,381.05 c 0.32,0.09 0.97,0.28 1.29,0.37 3.23,17.23 6.59,34.43 9.47,51.73 1.01,5.07 1.48,10.26 2.93,15.23 -8.24,0.37 -16.47,-0.04 -24.7,-0.04 3.49,-20.44 7.45,-40.79 10.53,-61.3 0.22,-1.99 0.33,-3.99 0.48,-5.99 z"
       id="path19" />
    <path
       fill="#080808"
       opacity="1"
       d="m 391.5,567.53 c 5.88,-1.44 12.32,0.1 17.14,3.71 4.81,3.75 6.72,9.95 7.4,15.79 1.48,11.92 0.8,23.97 0.96,35.95 -0.24,7.19 -0.73,14.94 -5.1,20.98 -6.05,9.26 -20.99,10.97 -28.62,2.76 -5.44,-6.23 -6.55,-14.81 -7.24,-22.74 -0.17,-11.68 -0.77,-23.39 0.09,-35.05 0.79,-5.42 1.88,-11.13 5.43,-15.5 2.47,-3.08 6.15,-4.98 9.94,-5.9 z"
       id="path20" />
    <path
       fill="#080808"
       opacity="1"
       d="m 512.49,567.55 c 7.53,-2.19 16.1,1.35 20.07,8.07 4.97,8.54 4.95,18.81 5.43,28.39 -0.3,10.68 0.97,21.57 -1.53,32.07 -1.54,6.84 -6.77,12.87 -13.64,14.69 -5.63,2.38 -11.93,0.07 -17.01,-2.63 -7.15,-5.26 -7.72,-14.99 -8.72,-23.08 -0.22,-10.71 -0.36,-21.44 0.02,-32.15 0.76,-6.16 1.58,-12.6 4.93,-17.97 2.3,-3.76 6.21,-6.33 10.45,-7.39 z"
       id="path21" />
    <path
       fill="#080808"
       opacity="1"
       d="m 137,818.79 c 9.2,4.26 17.67,9.91 26.75,14.41 33.23,18.15 66.61,36.03 99.94,54.01 19.38,10.58 38.8,21.09 58.45,31.17 -5.01,10.53 -11.35,20.37 -17.65,30.16 -4.94,7.41 -10.42,14.59 -16.69,20.88 -30.96,-17.14 -62.28,-33.62 -93.18,-50.87 -16.06,-9.25 -32.7,-17.44 -48.98,-26.3 -2.84,-1.77 -6.2,-2.74 -8.65,-5.09 0.36,-1.37 0.55,-2.76 0.57,-4.15 -0.31,-21.41 -0.68,-42.81 -0.56,-64.22 z"
       id="path22" />
    <path
       fill="#080808"
       opacity="1"
       d="m 875.62,824.77 c 3.3,-1.96 6.74,-3.68 10.36,-4.97 -0.49,22.78 -0.11,45.57 0.24,68.35 -19.52,10.91 -39.36,21.27 -58.8,32.33 -15.96,8.58 -31.5,17.89 -47.49,26.41 -19.31,10.14 -38.23,21.03 -57.33,31.56 -23.77,12.92 -47.12,26.66 -71.1,39.16 1.28,-2.62 3.27,-4.76 5.23,-6.87 13.81,-15.86 26.37,-32.85 37.07,-50.97 8.1,-13.7 16.42,-27.47 21.4,-42.68 0.61,-1.83 1,-4.09 3.06,-4.83 35.11,-19.53 70.18,-39.13 105.32,-58.61 17.4,-9.53 34.76,-19.14 52.04,-28.88 z"
       id="path23" />
    <path
       fill="#080808"
       opacity="1"
       d="m 138.87,985.76 c 8.12,5.53 15.72,11.87 24.06,17.11 16.34,10.31 33.21,19.77 49.31,30.46 -6.1,5.73 -13.61,9.75 -20.69,14.16 -7.91,4.54 -15.99,8.8 -24.15,12.89 -9.79,-15.56 -15.78,-33.1 -21.13,-50.58 -2.49,-8.01 -5.54,-15.87 -7.4,-24.04 z"
       id="path24" />
    <path
       fill="#080808"
       opacity="1"
       d="m 834.31,1029.2 c 16.22,-8.94 32.26,-18.2 48.38,-27.33 -6.23,21.51 -15.66,42.09 -28.13,60.69 -9.38,14.29 -21.49,26.48 -34.01,38.01 -28.69,24.55 -59.92,46 -92.15,65.63 -36.55,22.12 -73.36,43.84 -111.06,63.93 -33.85,18.42 -68.07,36.15 -101.92,54.56 -15.78,-8.05 -31.02,-17.08 -46.58,-25.53 -18.96,-10.85 -38.52,-20.59 -57.54,-31.32 -18.27,-10.45 -36.67,-20.66 -54.7,-31.51 -6.31,-3.94 -13.14,-7.05 -19.25,-11.27 l 0.5,-0.78 c 20.38,-5.74 40.66,-11.9 60.72,-18.72 7.65,-2.39 15.25,-5.17 23.05,-6.99 29.39,17.27 59.02,34.2 88.48,51.36 2.79,0.06 4.99,-2.21 7.49,-3.23 38.1,-21.18 75.98,-42.73 114.01,-64.02 35.6,-19.78 71.25,-39.47 106.75,-59.43 32.17,-17.67 63.89,-36.18 95.96,-54.05 z"
       id="path25" />
  </g>
</svg>
