<?xml version="1.0" encoding="UTF-8" standalone="no"?>
<svg
   width="791.45209pt"
   height="871.49664pt"
   viewBox="0 0 791.45209 871.49664"
   version="1.1"
   id="svg6"
   sodipodi:docname="seed.svg"
   xml:space="preserve"
   inkscape:version="1.4 (86a8ad7, 2024-10-11)"
   xmlns:inkscape="http://www.inkscape.org/namespaces/inkscape"
   xmlns:sodipodi="http://sodipodi.sourceforge.net/DTD/sodipodi-0.dtd"
   xmlns="http://www.w3.org/2000/svg"
   xmlns:svg="http://www.w3.org/2000/svg"><defs
     id="defs6"><inkscape:path-effect
       effect="bend_path"
       id="path-effect7"
       is_visible="true"
       lpeversion="1"
       bendpath="m 155.84257,452.87403 c 237.90596,-22.87505 478.61976,-20.47963 721.34291,0"
       prop_scale="1"
       scale_y_rel="false"
       vertical="false"
       hide_knot="false"
       bendpath-nodetypes="cc" /></defs><sodipodi:namedview
     id="namedview6"
     pagecolor="#ffffff"
     bordercolor="#000000"
     borderopacity="0.25"
     inkscape:showpageshadow="2"
     inkscape:pageopacity="0.0"
     inkscape:pagecheckerboard="0"
     inkscape:deskcolor="#d1d1d1"
     inkscape:document-units="pt"
     inkscape:zoom="0.82983398"
     inkscape:cx="520.58606"
     inkscape:cy="662.18064"
     inkscape:window-width="2558"
     inkscape:window-height="1341"
     inkscape:window-x="1272"
     inkscape:window-y="0"
     inkscape:window-maximized="0"
     inkscape:current-layer="svg6" /><g
     id="#ffffffff"
     transform="translate(-121.05475,-14.797154)" /><g
     id="#006837ff"
     transform="translate(-121.05475,-14.797154)"><path
       fill="#006837"
       opacity="1"
       d="m 580.52,16.29 c 16.37,-1.86 32.95,-2.07 49.33,-0.13 2.82,0.38 5.75,0.43 8.41,1.56 5.41,2.5 11.73,2.17 17,5.02 3.18,2.14 7,2.9 10.37,4.65 5.02,3.25 9.84,6.74 14.47,10.52 11.59,10.71 19.86,24.88 23.72,40.18 5.03,19.11 3.38,39.31 -1.06,58.37 -0.87,4.91 -2.86,9.58 -3.3,14.55 45.83,-0.34 91.69,0.03 137.53,-0.15 2.56,0.03 5.13,0.06 7.7,0.2 -0.07,68.03 0.01,136.07 0.09,204.11 5,0.24 10.14,-0.01 15.03,1.29 3.73,1.84 7.82,2.68 11.7,4.14 15.35,8.01 27.65,21.62 34.14,37.71 4.68,11.27 7,23.49 6.85,35.69 -0.08,15.98 0.1,31.97 -0.11,47.96 -1.67,23.61 -11.88,47.87 -31.52,61.99 -2.5,2.31 -5.84,3.36 -8.49,5.46 -5.4,3.35 -11.95,3.63 -17.94,5.26 -3.04,1.31 -6.4,1.28 -9.64,1.33 -0.2,16.64 0.1,33.3 -0.13,49.95 -1.35,29.1 -9.54,57.78 -23.22,83.48 -11.72,22.72 -29.44,42.6 -51.73,55.32 -3.88,3.33 -8.89,4.86 -12.73,8.24 -3.13,1.79 -6,3.97 -9.01,5.95 -4.67,2.14 -8.52,5.57 -12.96,8.08 -3.88,3.32 -8.88,4.88 -12.73,8.24 -4.43,2.16 -8.02,5.63 -12.56,7.58 -6.34,3.97 -12.35,8.47 -19.01,11.89 -3.52,2.95 -7.84,4.67 -11.37,7.6 -8.3,4.12 -15.36,10.25 -23.63,14.4 -2.76,2.36 -6.1,3.82 -9.04,5.91 -2.75,2.45 -6.34,3.58 -9.27,5.77 -3.18,2.61 -7.1,4.08 -10.21,6.79 -8.29,4.19 -15.46,10.21 -23.76,14.38 -3.78,2.92 -8.08,5.04 -11.87,7.94 -8.55,4.25 -15.93,10.44 -24.61,14.44 -3.3,2.74 -7.54,3.73 -11.24,5.75 -4.46,3 -10.11,2.93 -14.9,5.15 -3.67,1.82 -7.84,2.01 -11.83,2.56 -11.51,1.38 -23.17,1.06 -34.64,-0.5 -2.47,-0.38 -5,-0.73 -7.25,-1.87 -4.72,-2.35 -10.43,-2.19 -14.8,-5.32 -2.71,-1.79 -6.04,-2.38 -8.64,-4.35 -3.55,-3 -8.22,-4.22 -11.71,-7.31 -4.29,-2.29 -7.89,-5.67 -12.34,-7.66 -6.45,-3.88 -12.45,-8.48 -19.2,-11.85 -5.82,-3.9 -11.49,-8.06 -17.76,-11.2 -6.96,-5.25 -14.85,-9.02 -21.95,-14.04 -4.37,-2.17 -7.96,-5.55 -12.4,-7.59 -7.62,-5.53 -15.91,-9.95 -23.7,-15.2 -6.86,-4.6 -14.03,-8.65 -20.95,-13.14 -3.3,-2.91 -7.73,-4.03 -11.03,-6.93 -4.99,-3.06 -9.62,-6.65 -14.92,-9.17 -3.31,-2.83 -7.43,-4.43 -10.74,-7.25 -8.13,-4.4 -15.33,-10.29 -23.63,-14.39 -6.23,-4.41 -12.79,-8.38 -18.57,-13.38 -5.67,-3.56 -9.87,-8.84 -14.69,-13.38 -21.71,-24.52 -36.29,-55.28 -41.53,-87.62 -4.42,-25.54 -2.21,-51.54 -2.77,-77.3 -3.59,-0.05 -6.89,-1.61 -10.4,-2.14 -5.7,-1.06 -11.69,-2.13 -16.36,-5.82 -18.16,-9.72 -29.95,-28.53 -34.67,-48.22 -4.73,-17.21 -2.72,-35.19 -3.2,-52.79 -0.36,-15.17 0.22,-30.71 5.7,-45.05 5.49,-15.52 15.88,-29.45 29.9,-38.21 4.35,-3.86 10.32,-4.44 15.52,-6.53 4.22,-2.07 9.05,-1.7 13.61,-2.02 -0.12,-68.1 -0.06,-136.21 -0.03,-204.32 66.96,0.01 133.95,0.13 200.9,0 7.14,-13.01 16.4,-24.8 25.89,-36.18 7.91,-9.71 16.95,-18.4 25.8,-27.23 10.5,-9.95 21.9,-18.87 33.6,-27.36 4.59,-2.3 8.41,-5.76 12.94,-8.16 3.34,-2.96 7.73,-4.14 11.39,-6.57 2.87,-2.41 6.7,-3.12 9.72,-5.29 3.9,-2.9 9,-3.38 13.07,-5.99 3.43,-2.31 7.72,-2.69 11.32,-4.67 6.16,-3.71 13.75,-3.57 20.13,-6.77 6.31,-2.45 13.3,-2.32 19.71,-4.42 3.2,-1.46 6.77,-1.55 10.21,-1.94 m 11.41,35.32 c -10.24,1.32 -20.93,1.42 -30.54,5.55 -5.93,1.82 -12.35,2.27 -17.82,5.37 -3.66,1.93 -7.94,2.34 -11.46,4.57 -4.13,2.56 -9.16,3.15 -13.22,5.85 -3.07,2.07 -6.82,2.88 -9.79,5.12 -3.18,2.35 -7.12,3.38 -10.23,5.84 -20.38,13.05 -39.62,28.04 -56.41,45.52 -13.29,13.36 -24.46,28.65 -34.48,44.56 -18.3,29.46 -30.36,62.65 -36.47,96.75 -2.33,14.22 -2.67,28.69 -2.15,43.07 0.16,3.02 0.31,6.06 0.95,9.03 1.07,0.21 1.82,-0.2 2.25,-1.23 14.8,-30.24 32.82,-58.9 53.68,-85.32 9.27,-11.09 18.07,-22.58 27.72,-33.35 7.59,-8.76 15.86,-16.88 23.73,-25.37 16.61,-16.44 34.4,-31.63 52.68,-46.17 6.79,-4.14 12.5,-9.85 19.58,-13.54 16.92,-11.5 33.42,-23.68 51.38,-33.53 3.82,-2.96 8.79,-3.63 12.78,-6.26 3.38,-2.28 7.61,-2.75 11.03,-4.97 4.41,-2.83 9.88,-3.07 14.48,-5.5 5.16,-3.11 11.64,-3.3 16.34,-7.26 -5.42,-1.48 -10.82,-3.04 -15.98,-5.25 -8.57,-1.85 -17.34,-2.59 -26.05,-3.41 -7.16,-1.74 -14.87,-2.07 -22,-0.07 m 65.63,29.87 c -2.28,0.69 -4.69,1.16 -6.74,2.43 -3.61,2.32 -8.06,2.86 -11.57,5.35 -2.98,1.89 -6.58,2.49 -9.56,4.39 -4.29,2.99 -9.62,3.98 -13.75,7.25 -5.16,2.45 -9.59,6.11 -14.87,8.32 -4.14,2.8 -8.49,5.29 -12.5,8.29 -7.09,3.67 -13,9.14 -19.75,13.35 -25.04,17.9 -48.94,37.45 -71.18,58.75 -17.96,17.45 -34.56,36.24 -50.54,55.48 -15.9,19.36 -30.94,39.43 -44.7,60.37 -5.85,8.98 -11.58,18.09 -16.09,27.84 -1.17,2.6 -2.94,5.29 -2.13,8.27 4.28,0.79 8.49,1.92 12.8,2.6 6.01,1.36 12.25,1.45 18.15,3.34 11.55,0.84 23.22,0.9 34.78,0.06 6.88,-2.09 14.17,-1.88 21.2,-3.22 5.5,-1.13 11.35,-1.18 16.46,-3.74 4.56,-2.15 9.87,-2.18 14.24,-4.81 4.05,-2.3 8.84,-2.8 12.85,-5.16 4.15,-2.72 9.18,-3.73 13.13,-6.81 5.75,-2.3 10.8,-5.84 16.15,-8.9 3.74,-3.04 8.38,-4.69 11.99,-7.91 29.16,-20.06 53.27,-46.7 73.47,-75.58 20.35,-30.26 37.13,-63.88 43.1,-100.16 3.24,-17.23 3.13,-35.25 -1.77,-52.16 -4.54,-0.38 -8.85,1.24 -13.17,2.36 M 212.21,183.39 c -0.49,57.24 -0.32,114.49 -0.31,171.73 10.35,0.07 20.69,0.12 31.03,-0.02 -0.06,-44.62 -0.34,-89.26 0,-133.88 36.63,0 73.28,0.33 109.9,-0.16 4.39,-12.81 9.52,-25.36 14.91,-37.79 -51.84,0.25 -103.69,0.12 -155.53,0.12 m 477.29,0.2 c -1.86,1.69 -2.52,4.22 -3.5,6.44 -4.19,10.5 -8.95,20.8 -13.42,31.16 38.4,0.14 76.81,0.09 115.21,0.13 0.05,44.62 -0.1,89.24 -0.17,133.87 10.35,-0.14 20.71,0.24 31.06,-0.24 -0.24,-57.13 0.22,-114.27 -0.21,-171.4 -29.15,-0.31 -58.31,-0.1 -87.47,-0.15 -13.83,0.12 -27.68,-0.2 -41.5,0.19 M 211.97,555.74 c -0.24,12.42 -0.11,24.84 0.04,37.27 -0.12,29.3 7.13,58.79 21.74,84.25 7.22,12.33 17.03,22.92 27.96,32.04 19.16,12.64 38.93,24.23 57.97,37.05 17.47,10.42 34.53,21.48 51.83,32.18 3.59,2.88 8.06,4.36 11.62,7.31 4.91,2.74 9.31,6.27 14.43,8.67 9.65,6.83 20.1,12.33 29.79,19.11 5.08,2.4 9.49,5.92 14.37,8.67 3.36,2.81 7.59,4.25 11,6.99 9.05,6.04 18.68,11.12 27.63,17.35 4.09,1.97 8.47,3.32 12.52,5.42 11.04,2.69 22.64,2.7 33.89,1.37 3.44,-0.51 7.02,-0.84 10.15,-2.49 4.99,-2.5 10.87,-3.05 15.25,-6.73 29.51,-17.66 58.37,-36.4 87.74,-54.26 21.18,-13.55 42.76,-26.39 63.83,-40.12 4.26,-1.92 7.8,-5.01 11.88,-7.25 9.68,-6.79 20.11,-12.36 29.74,-19.2 7.77,-4.02 14.57,-9.6 22.18,-13.89 7.45,-5.81 13.78,-12.91 19.77,-20.18 16.19,-20.29 25.16,-45.44 29.27,-70.86 3.6,-20.67 1.48,-41.72 2.21,-62.56 -10.3,-0.7 -20.69,-0.32 -31.02,-0.17 -0.38,15.77 -0.01,31.56 -0.15,47.34 -0.08,15.8 -3.79,31.58 -10.72,45.77 -8.05,16.58 -20.34,31.59 -36.9,40.18 -3.93,1.93 -7.23,4.89 -11.14,6.89 -3.54,3 -7.99,4.53 -11.7,7.27 -8.09,5.37 -16.52,10.11 -24.67,15.37 -3.61,2.88 -8.12,4.31 -11.69,7.27 -14.11,8.49 -27.9,17.52 -42.1,25.86 -4.93,3.11 -9.71,6.49 -14.87,9.23 -6.32,4.04 -12.48,8.34 -19.15,11.82 -7.3,5.16 -15.23,9.31 -22.68,14.24 -14.15,8.49 -27.87,17.69 -42.14,25.98 -5.1,2.66 -10.98,2.92 -16.39,4.65 -4.54,1.67 -9.55,1.19 -14.28,0.86 -7.13,-2.54 -15.22,-2.57 -21.55,-7.1 -5.39,-2.42 -9.9,-6.27 -15.26,-8.74 -9.01,-6.13 -18.55,-11.35 -27.65,-17.32 -3.62,-2.83 -8.03,-4.38 -11.58,-7.31 -28.15,-17.14 -55.86,-34.96 -83.98,-52.15 -3.75,-3.1 -8.48,-4.62 -12.26,-7.68 -11.38,-6.96 -22.7,-14 -34.04,-21.02 -10.83,-7.44 -23.2,-12.89 -32.32,-22.63 C 252.27,654.33 243.09,627 242.84,600 c -0.15,-14.66 -0.1,-29.31 -0.18,-43.97 -4.18,-0.78 -8.44,-0.4 -12.66,-0.44 -6.01,0.05 -12.02,-0.18 -18.03,0.15 z"
       id="path1" /></g><g
     id="#ffd700ff"
     transform="translate(-121.05475,-14.797154)"><path
       fill="#ffd700"
       opacity="1"
       d="m 591.93,51.61 c 7.13,-2 14.84,-1.67 22,0.07 8.71,0.82 17.48,1.56 26.05,3.41 5.16,2.21 10.56,3.77 15.98,5.25 -4.7,3.96 -11.18,4.15 -16.34,7.26 -4.6,2.43 -10.07,2.67 -14.48,5.5 -3.42,2.22 -7.65,2.69 -11.03,4.97 -3.99,2.63 -8.96,3.3 -12.78,6.26 -17.96,9.85 -34.46,22.03 -51.38,33.53 -7.08,3.69 -12.79,9.4 -19.58,13.54 -18.28,14.54 -36.07,29.73 -52.68,46.17 -7.87,8.49 -16.14,16.61 -23.73,25.37 -9.65,10.77 -18.45,22.26 -27.72,33.35 -20.86,26.42 -38.88,55.08 -53.68,85.32 -0.43,1.03 -1.18,1.44 -2.25,1.23 -0.64,-2.97 -0.79,-6.01 -0.95,-9.03 -0.52,-14.38 -0.18,-28.85 2.15,-43.07 6.11,-34.1 18.17,-67.29 36.47,-96.75 10.02,-15.91 21.19,-31.2 34.48,-44.56 16.79,-17.48 36.03,-32.47 56.41,-45.52 3.11,-2.46 7.05,-3.49 10.23,-5.84 2.97,-2.24 6.72,-3.05 9.79,-5.12 4.06,-2.7 9.09,-3.29 13.22,-5.85 3.52,-2.23 7.8,-2.64 11.46,-4.57 5.47,-3.1 11.89,-3.55 17.82,-5.37 9.61,-4.13 20.3,-4.23 30.54,-5.55 z"
       id="path2" /><path
       fill="#ffd700"
       opacity="1"
       d="m 657.56,81.48 c 4.32,-1.12 8.63,-2.74 13.17,-2.36 4.9,16.91 5.01,34.93 1.77,52.16 -5.97,36.28 -22.75,69.9 -43.1,100.16 -20.2,28.88 -44.31,55.52 -73.47,75.58 -3.61,3.22 -8.25,4.87 -11.99,7.91 -5.35,3.06 -10.4,6.6 -16.15,8.9 -3.95,3.08 -8.98,4.09 -13.13,6.81 -4.01,2.36 -8.8,2.86 -12.85,5.16 -4.37,2.63 -9.68,2.66 -14.24,4.81 -5.11,2.56 -10.96,2.61 -16.46,3.74 -7.03,1.34 -14.32,1.13 -21.2,3.22 -11.56,0.84 -23.23,0.78 -34.78,-0.06 -5.9,-1.89 -12.14,-1.98 -18.15,-3.34 -4.31,-0.68 -8.52,-1.81 -12.8,-2.6 -0.81,-2.98 0.96,-5.67 2.13,-8.27 4.51,-9.75 10.24,-18.86 16.09,-27.84 13.76,-20.94 28.8,-41.01 44.7,-60.37 15.98,-19.24 32.58,-38.03 50.54,-55.48 22.24,-21.3 46.14,-40.85 71.18,-58.75 6.75,-4.21 12.66,-9.68 19.75,-13.35 4.01,-3 8.36,-5.49 12.5,-8.29 5.28,-2.21 9.71,-5.87 14.87,-8.32 4.13,-3.27 9.46,-4.26 13.75,-7.25 2.98,-1.9 6.58,-2.5 9.56,-4.39 3.51,-2.49 7.96,-3.03 11.57,-5.35 2.05,-1.27 4.46,-1.74 6.74,-2.43 z"
       id="path3" /><path
       fill="#ffd700"
       opacity="1"
       d="m 212.21,183.39 c 51.84,0 103.69,0.13 155.53,-0.12 -5.39,12.43 -10.52,24.98 -14.91,37.79 -36.62,0.49 -73.27,0.16 -109.9,0.16 -0.34,44.62 -0.06,89.26 0,133.88 -10.34,0.14 -20.68,0.09 -31.03,0.02 -0.01,-57.24 -0.18,-114.49 0.31,-171.73 z"
       id="path4" /><path
       fill="#ffd700"
       opacity="1"
       d="m 689.5,183.59 c 13.82,-0.39 27.67,-0.07 41.5,-0.19 29.16,0.05 58.32,-0.16 87.47,0.15 0.43,57.13 -0.03,114.27 0.21,171.4 -10.35,0.48 -20.71,0.1 -31.06,0.24 0.07,-44.63 0.22,-89.25 0.17,-133.87 -38.4,-0.04 -76.81,0.01 -115.21,-0.13 4.47,-10.36 9.23,-20.66 13.42,-31.16 0.98,-2.22 1.64,-4.75 3.5,-6.44 z"
       id="path5" /><path
       fill="#ffd700"
       opacity="1"
       d="m 211.97,555.74 c 6.01,-0.33 12.02,-0.1 18.03,-0.15 4.22,0.04 8.48,-0.34 12.66,0.44 0.08,14.66 0.03,29.31 0.18,43.97 0.25,27 9.43,54.33 27.7,74.49 9.12,9.74 21.49,15.19 32.32,22.63 11.34,7.02 22.66,14.06 34.04,21.02 3.78,3.06 8.51,4.58 12.26,7.68 28.12,17.19 55.83,35.01 83.98,52.15 3.55,2.93 7.96,4.48 11.58,7.31 9.1,5.97 18.64,11.19 27.65,17.32 5.36,2.47 9.87,6.32 15.26,8.74 6.33,4.53 14.42,4.56 21.55,7.1 4.73,0.33 9.74,0.81 14.28,-0.86 5.41,-1.73 11.29,-1.99 16.39,-4.65 14.27,-8.29 27.99,-17.49 42.14,-25.98 7.45,-4.93 15.38,-9.08 22.68,-14.24 6.67,-3.48 12.83,-7.78 19.15,-11.82 5.16,-2.74 9.94,-6.12 14.87,-9.23 14.2,-8.34 27.99,-17.37 42.1,-25.86 3.57,-2.96 8.08,-4.39 11.69,-7.27 8.15,-5.26 16.58,-10 24.67,-15.37 3.71,-2.74 8.16,-4.27 11.7,-7.27 3.91,-2 7.21,-4.96 11.14,-6.89 16.56,-8.59 28.85,-23.6 36.9,-40.18 6.93,-14.19 10.64,-29.97 10.72,-45.77 0.14,-15.78 -0.23,-31.57 0.15,-47.34 10.33,-0.15 20.72,-0.53 31.02,0.17 -0.73,20.84 1.39,41.89 -2.21,62.56 -4.11,25.42 -13.08,50.57 -29.27,70.86 -5.99,7.27 -12.32,14.37 -19.77,20.18 -7.61,4.29 -14.41,9.87 -22.18,13.89 -9.63,6.84 -20.06,12.41 -29.74,19.2 -4.08,2.24 -7.62,5.33 -11.88,7.25 -21.07,13.73 -42.65,26.57 -63.83,40.12 -29.37,17.86 -58.23,36.6 -87.74,54.26 -4.38,3.68 -10.26,4.23 -15.25,6.73 -3.13,1.65 -6.71,1.98 -10.15,2.49 -11.25,1.33 -22.85,1.32 -33.89,-1.37 -4.05,-2.1 -8.43,-3.45 -12.52,-5.42 -8.95,-6.23 -18.58,-11.31 -27.63,-17.35 -3.41,-2.74 -7.64,-4.18 -11,-6.99 -4.88,-2.75 -9.29,-6.27 -14.37,-8.67 -9.69,-6.78 -20.14,-12.28 -29.79,-19.11 -5.12,-2.4 -9.52,-5.93 -14.43,-8.67 -3.56,-2.95 -8.03,-4.43 -11.62,-7.31 -17.3,-10.7 -34.36,-21.76 -51.83,-32.18 -19.04,-12.82 -38.81,-24.41 -57.97,-37.05 -10.93,-9.12 -20.74,-19.71 -27.96,-32.04 -14.61,-25.46 -21.86,-54.95 -21.74,-84.25 -0.15,-12.43 -0.28,-24.85 -0.04,-37.27 z"
       id="path6" /></g><text
     xml:space="preserve"
     style="font-size:9px;text-align:start;writing-mode:lr-tb;direction:ltr;text-anchor:start;fill:#006837;stroke-width:0.75"
     x="54.281517"
     y="405.46762"
     id="text6"><tspan
       sodipodi:role="line"
       id="tspan6"
       style="stroke-width:0.75"
       x="54.281517"
       y="405.46762" /></text><path
     style="font-weight:bold;font-size:154.226px;font-family:Tahoma;-inkscape-font-specification:'Tahoma Bold';text-align:center;letter-spacing:-8.41015px;word-spacing:-24.9814px;text-anchor:middle;fill:#ffd700;stroke-width:0.803262"
     d="m 198.8543,511.60692 c -7.83097,0.66612 -14.79496,0.39377 -20.91106,-0.83369 -6.0696,-1.23151 -11.77408,-2.91346 -17.1183,-5.05168 l -2.74036,-28.49143 c 0.78652,-0.0757 1.57307,-0.1512 2.35964,-0.22638 5.66862,4.60225 11.7339,7.9875 18.20786,10.16207 6.47439,2.17471 12.62702,3.01589 18.48118,2.51859 1.47536,-0.12533 3.39474,-0.47676 5.7615,-1.05229 2.41264,-0.57931 4.32418,-1.33058 5.73528,-2.25663 1.72519,-1.0597 3.1469,-2.44478 4.26536,-4.15628 1.11405,-1.76504 1.56602,-3.99064 1.35271,-6.67673 -0.23892,-3.00854 -1.45195,-5.37245 -3.64394,-7.08863 -2.19198,-1.71617 -4.74062,-2.88829 -7.64404,-3.51394 -3.61735,-0.78296 -7.48923,-1.48553 -11.6143,-2.10486 -4.07885,-0.62334 -7.9234,-1.47608 -11.53545,-2.56069 -8.33596,-2.55672 -14.5182,-6.41506 -18.54047,-11.61293 -4.02037,-5.19539 -6.4444,-11.94981 -7.24265,-20.26561 -1.07648,-11.21431 2.2156,-20.68909 9.95564,-28.38418 7.73417,-7.74786 17.93211,-12.17583 30.52278,-13.2193 6.31802,-0.52362 12.6494,-0.30103 18.98255,0.66766 6.38051,0.96499 12.12892,2.5092 17.23983,4.6229 l 1.99618,27.4115 c -0.77625,0.0565 -1.55249,0.11324 -2.32871,0.17025 -4.18494,-3.52906 -9.20987,-6.39613 -15.07407,-8.59006 -5.81696,-2.19757 -11.70906,-3.05148 -17.65699,-2.56048 -2.31305,0.19094 -4.37449,0.5527 -6.18322,1.08389 -1.80876,0.53119 -3.68183,1.42088 -5.61709,2.66934 -1.57657,1.00124 -2.9024,2.41479 -3.97682,4.23993 -1.03199,1.76732 -1.45455,3.6983 -1.27034,5.79222 0.26924,3.06031 1.42436,5.4205 3.46015,7.08244 2.07939,1.60519 5.89814,2.89482 11.45737,3.88926 3.5911,0.61822 7.03868,1.22729 10.33965,1.82527 3.34826,0.59428 6.93166,1.49875 10.74603,2.71537 7.48897,2.44438 13.16776,6.10526 17.03976,10.9546 3.91656,4.79444 6.15974,11.35872 6.75659,19.6914 0.85473,11.933 -2.50937,21.81099 -10.01135,29.67173 -7.45793,7.85929 -17.95274,12.32068 -31.5509,13.47737 z m 49.70731,-6.04412 -8.40763,-120.06816 c 23.91556,-1.67247 47.83978,-3.10394 71.76897,-4.30231 l 1.1479,22.92721 c -14.99524,0.75088 -29.98748,1.59398 -44.97581,2.53128 l 1.31738,21.05591 c 13.72669,-0.85864 27.45749,-1.6377 41.1917,-2.33874 l 1.17016,22.92607 c -13.6473,0.69655 -27.29034,1.47073 -40.92839,2.32409 l 1.89784,30.33342 c 14.67632,-0.91869 29.35986,-1.74473 44.0497,-2.48009 l 1.1479,22.92721 c -23.14621,1.15856 -46.274,2.54397 -69.37972,4.16411 z m 79.12564,-4.6385 -5.68952,-120.22274 c 23.93052,-1.1331 47.8655,-2.03419 71.80127,-2.71117 l 0.64699,22.94852 c -15.00307,0.42382 -30.00481,0.93629 -45.0043,1.53937 l 0.84689,21.08023 c 13.74008,-0.55219 27.48287,-1.02785 41.22765,-1.42851 l 0.66838,22.94779 c -13.66126,0.39776 -27.31968,0.87012 -40.97452,1.41861 l 1.22003,30.36846 c 14.69943,-0.59005 29.40441,-1.09101 44.11403,-1.50488 l 0.64699,22.94852 c -23.1834,0.65145 -46.35259,1.52075 -69.50389,2.6158 z m 171.11274,-64.17438 c 0.0168,11.21057 -2.09747,21.26767 -6.29694,30.1723 -4.20024,8.85202 -9.49323,15.66721 -15.88157,20.45491 -5.33162,4.08034 -11.14098,6.74656 -17.44405,8.00559 -6.25784,1.20466 -12.93014,1.86334 -20.02598,1.9831 -10.73568,0.18119 -21.4688,0.40802 -32.19898,0.68126 L 403.8763,377.71859 c 10.98151,-0.28181 21.96309,-0.51667 32.94437,-0.70536 7.4633,-0.12824 14.46067,0.31184 20.9828,1.31249 6.52238,1.00069 12.65291,3.55826 18.37289,7.66726 7.00803,5.01683 12.52744,11.83872 16.5634,20.45102 4.03674,8.56039 6.04279,18.66144 6.06023,30.30592 z m -26.96813,-0.11035 c -0.066,-7.92381 -1.3166,-14.67631 -3.7689,-20.26046 -2.40525,-5.63734 -6.10379,-10.02084 -11.10045,-13.14099 -3.61572,-2.22011 -7.41434,-3.40894 -11.38752,-3.56498 -3.92384,-0.15665 -8.63279,-0.18828 -14.11344,-0.0862 -0.16543,0.003 -0.33086,0.006 -0.49629,0.009 l 1.40686,75.33139 c 0.16221,-0.003 0.32443,-0.006 0.48664,-0.009 5.84316,-0.10796 10.74758,-0.29309 14.73474,-0.56714 4.02922,-0.32838 7.83374,-1.83298 11.42333,-4.51589 4.23322,-3.17512 7.44406,-7.51854 9.62912,-13.0362 2.18463,-5.51658 3.25185,-12.2379 3.18591,-20.15974 z m 139.04564,1.4893 c -0.28951,11.20946 -2.6783,21.20724 -7.12329,29.99555 -4.44429,8.73561 -9.92754,15.40423 -16.4524,20.01455 -5.44786,3.93226 -11.33568,6.4367 -17.67862,7.51943 -6.29616,1.02963 -12.99219,1.50086 -20.09683,1.42009 -10.749,-0.12221 -21.49668,-0.20145 -32.24267,-0.23696 l 0.38179,-120.39438 c 10.97768,0.0334 21.95419,0.1111 32.92917,0.23235 7.45904,0.0824 14.43659,0.71868 20.92411,1.90128 6.48803,1.18268 12.54096,3.91005 18.1422,8.17664 6.86291,5.20985 12.19046,12.18246 15.98793,20.90411 3.79962,8.66965 5.52932,18.8242 5.22861,30.46734 z m -26.96113,-0.85263 c 0.15376,-7.9244 -0.90943,-14.71068 -3.20546,-20.36205 -2.24755,-5.70331 -5.82201,-10.18902 -10.72819,-13.44828 -3.55132,-2.3208 -7.31385,-3.61586 -11.27979,-3.88354 -3.91674,-0.26692 -8.62116,-0.43121 -14.1008,-0.48437 -0.16539,-0.002 -0.33078,-0.003 -0.49617,-0.005 l -0.72789,75.35879 c 0.16236,0.002 0.32472,0.003 0.48708,0.005 5.8484,0.0577 10.76052,0.0108 14.75683,-0.15113 4.04003,-0.21505 7.88844,-1.61284 11.55423,-4.19508 4.32342,-3.05641 7.65602,-7.30985 9.99471,-12.76601 2.33826,-5.45514 3.59172,-12.14577 3.74545,-20.06833 z m 21.90155,60.8305 c 12.60881,-39.83518 25.55403,-79.61592 38.82517,-119.33853 9.68194,0.32139 19.36189,0.67504 29.03962,1.06043 10.3317,40.58555 20.33653,81.20771 30.02409,121.86081 -8.88418,-0.42547 -17.76864,-0.82417 -26.65318,-1.19565 -1.80414,-8.27826 -3.62043,-16.5554 -5.44894,-24.83138 -10.86133,-0.43779 -21.7233,-0.83495 -32.58554,-1.19067 -2.42637,8.12025 -4.84032,16.24248 -7.24176,24.36665 -8.65347,-0.27055 -17.30669,-0.51457 -25.95946,-0.73166 z m 60.92765,-44.49104 c -3.03014,-13.36507 -6.0927,-26.72694 -9.18798,-40.08544 -4.06108,13.09745 -8.08985,26.20034 -12.086,39.30854 7.09172,0.24151 14.18308,0.50055 21.27398,0.7769 z m 59.27381,49.19838 5.14982,-97.3237 c -10.37384,-0.54898 -20.75036,-1.06252 -31.12924,-1.53994 l 1.05585,-22.94541 c 29.7312,1.36733 59.43921,3.0298 89.11691,4.97219 l -1.49807,22.91985 c -10.3629,-0.6779 -20.72904,-1.32157 -31.09812,-1.93034 l -5.70943,97.29135 c -8.62868,-0.50598 -17.25798,-0.98745 -25.88772,-1.444 z m 48.19531,2.80655 c 14.15062,-39.32403 28.60303,-78.58327 43.34673,-117.77404 9.64963,0.68748 19.29582,1.40409 28.93833,2.1493 8.80216,40.93639 17.30765,81.88953 25.52605,122.85376 -8.87235,-0.74617 -17.74628,-1.46836 -26.6216,-2.16612 -1.50005,-8.33741 -3.01111,-16.67444 -4.53324,-25.01103 -10.84472,-0.83892 -21.69199,-1.64131 -32.54146,-2.40639 -2.73306,8.02269 -5.455,16.04775 -8.16575,24.07516 -8.64877,-0.59757 -17.29852,-1.17125 -25.94906,-1.72064 z m 62.61614,-42.15654 c -2.53192,-13.46663 -5.09325,-26.93198 -7.68426,-40.39591 -4.54579,12.93499 -9.0627,25.87647 -13.55042,38.82435 7.07943,0.50813 14.15769,1.03206 21.23468,1.57156 z"
     id="text7"
     aria-label="SEED DATA"
     inkscape:path-effect="#path-effect7"
     inkscape:original-d="m 193.78648,515.25417 q -11.99336,0 -21.11112,-2.66823 -9.04763,-2.66824 -16.83279,-6.63017 v -28.6229 h 2.38465 q 7.8553,7.68128 17.32374,11.80492 9.46844,4.12364 18.3758,4.12364 2.24437,0 5.89147,-0.56599 3.71725,-0.56599 5.96162,-1.77882 2.73533,-1.37455 4.62901,-3.80022 1.89369,-2.50652 1.89369,-6.54931 0,-4.52791 -3.08601,-7.35786 -3.08602,-2.82995 -7.36435,-4.12364 -5.33038,-1.61711 -11.43226,-3.07252 -6.03175,-1.4554 -11.29201,-3.55765 -12.13363,-4.93219 -17.39387,-13.26032 -5.26025,-8.32814 -5.26025,-20.86077 0,-16.89883 12.41418,-27.32921 12.41418,-10.51124 31.00039,-10.51124 9.32817,0 18.51607,2.18311 9.25803,2.1831 16.55224,5.90246 v 27.49093 h -2.31451 q -5.82133,-5.74076 -14.23773,-9.70268 -8.34626,-3.96193 -17.18347,-3.96193 -3.4367,0 -6.17203,0.56599 -2.73533,0.56599 -5.7512,2.1831 -2.45478,1.29369 -4.27834,3.88107 -1.75341,2.50653 -1.75341,5.6599 0,4.60877 2.80546,7.35787 2.87561,2.66823 11.01145,4.85133 5.26025,1.37455 10.09968,2.66824 4.90956,1.29369 10.45035,3.55765 10.87118,4.52792 16.13143,12.20921 5.33038,7.60043 5.33038,20.13306 0,17.94995 -12.2739,28.86547 -12.20378,10.91551 -33.03436,10.91551 z m 50.87149,-2.1831 V 392.67699 h 70.62757 V 415.64 h -44.53675 v 21.10332 h 41.02992 v 22.96301 h -41.02992 v 30.40173 h 44.53675 v 22.96301 z m 80.53927,0 V 392.67699 h 70.62758 V 415.64 h -44.53676 v 21.10332 h 41.02992 v 22.96301 h -41.02992 v 30.40173 h 44.53676 v 22.96301 z m 173.82099,-60.07576 q 0,16.81798 -6.38244,30.15916 -6.38243,13.26033 -16.13142,20.37563 -8.13585,6.06418 -17.74456,7.843 -9.53858,1.69797 -20.33962,1.69797 H 405.73652 V 392.67699 h 32.40311 q 11.01145,0 20.62018,1.61711 9.60871,1.61711 18.0251,7.843 10.31009,7.60043 16.2717,20.53734 5.96162,12.85605 5.96162,30.32087 z m -26.93247,-0.24257 q 0,-11.88578 -3.57697,-20.29477 -3.50683,-8.48984 -10.87117,-13.26033 -5.33038,-3.39593 -11.22186,-3.71936 -5.82134,-0.32342 -13.95719,-0.32342 h -0.49096 v 75.35748 h 0.49096 q 8.83722,0 14.86896,-0.32342 6.10189,-0.40428 11.57255,-4.36621 6.45257,-4.68963 9.81912,-12.93691 3.36656,-8.24727 3.36656,-20.13306 z m 138.86391,0.24257 q 0,16.81798 -6.38242,30.15916 -6.38244,13.26033 -16.13142,20.37563 -8.13586,6.06418 -17.74458,7.843 -9.53858,1.69797 -20.33962,1.69797 H 517.66797 V 392.67699 h 32.40312 q 11.01145,0 20.62016,1.61711 9.60872,1.61711 18.02512,7.843 10.31008,7.60043 16.27169,20.53734 5.96161,12.85605 5.96161,30.32087 z m -26.93245,-0.24257 q 0,-11.88578 -3.57697,-20.29477 -3.50683,-8.48984 -10.87118,-13.26033 -5.33039,-3.39593 -11.22186,-3.71936 -5.82134,-0.32342 -13.95719,-0.32342 h -0.49095 v 75.35748 h 0.49095 q 8.83721,0 14.86897,-0.32342 6.10188,-0.40428 11.57254,-4.36621 6.45257,-4.68963 9.81913,-12.93691 3.36656,-8.24727 3.36656,-20.13306 z m 23.37793,60.31833 35.27872,-120.39408 h 28.61574 l 35.27873,120.39408 h -27.0026 l -6.52271,-24.58012 h -32.82394 l -6.5227,24.58012 z m 59.89668,-46.41115 -10.66077,-39.70013 -10.66076,39.70013 z m 61.8829,46.41115 V 415.64 h -30.86011 v -22.96301 h 87.95132 V 415.64 h -30.86011 v 97.43107 z m 48.83757,0 35.27872,-120.39408 h 28.61574 l 35.27872,120.39408 h -27.0026 l -6.52271,-24.58012 h -32.82394 l -6.5227,24.58012 z m 59.89667,-46.41115 -10.66076,-39.70013 -10.66077,39.70013 z"
     transform="translate(-121.05475,-4.2971536)" /><g
     id="g7"
     transform="matrix(0.47559213,0,0,0.53434354,156.30824,424.86898)"
     style="fill:#ffd700;fill-opacity:1"><g
       id="#ffffffff-8"
       style="fill:#ffd700;fill-opacity:1" /><g
       id="#8bc43fff"
       style="fill:#ffd700;fill-opacity:1"><path
         fill="#8bc43f"
         opacity="1"
         d="m 289.42,182.46 c 36.21,-1.02 73.01,6.75 104.92,24.13 19.88,10.82 37.34,26.33 49.44,45.54 20.21,31.41 30.71,69.35 27.91,106.71 10.21,-19.57 13.61,-41.95 12.67,-63.83 -0.21,-16.36 -2.8,-32.55 -4.24,-48.81 12.08,27.72 18.44,58.9 12.16,88.91 9.75,-14.27 22.16,-26.71 36.53,-36.33 16.66,-11.21 35.94,-19.26 56.19,-20.12 32.89,-1.49 65.39,10.16 92.29,28.59 -9.9,31.48 -31.8,59.25 -60.72,75.33 -18.05,10.04 -38.88,15.16 -59.54,14.06 -20.38,-0.94 -40.17,-7.79 -57.68,-18.06 -0.29,-0.28 -0.87,-0.83 -1.16,-1.1 8.09,-13.69 20.44,-24.4 34.24,-32.09 11.44,-6.42 23.87,-10.94 36.6,-14.02 -29.5,2.45 -60.09,12.8 -80.01,35.7 -11.59,13.93 -20.83,29.63 -29.39,45.55 -10.35,18.98 -19.67,38.66 -25.72,59.46 -5.24,18.36 -8.11,37.97 -4.07,56.87 3.52,17.49 14.02,33.18 28.19,43.89 3.12,2.7 6.92,4.49 10.04,7.17 -15.99,-7.09 -30.83,-17.73 -40.97,-32.15 -11.22,-15.78 -14.86,-35.86 -12.97,-54.88 2.58,-26.99 13.31,-52.37 25.53,-76.29 8.83,-18.01 10.71,-39.06 6.08,-58.51 -7.21,-30.64 -28.23,-57.52 -55.72,-72.66 15.75,15.86 30.26,33.49 39.29,54.13 6.83,15.82 11,34.05 6.04,50.99 -21.51,-0.28 -43.24,-3.34 -63.23,-11.62 -22.36,-9.03 -42.2,-24.2 -56.73,-43.46 -21,-27.54 -31.55,-62.16 -32.66,-96.56 -0.66,-19.04 1.6,-38.18 6.69,-56.54 z"
         id="path1-5"
         style="fill:#ffd700;fill-opacity:1" /><path
         fill="#8bc43f"
         opacity="1"
         d="m 540.19,422.27 c 20.34,-5.04 41.88,-3.4 61.9,2.28 17.54,5.1 34.59,13.73 46.95,27.44 11.25,12.27 17.17,29.54 14.69,46.11 -1.76,12.83 -7.98,24.65 -15.99,34.67 -10.13,12.64 -22.95,22.89 -36.68,31.37 -17.25,10.52 -36.15,18.42 -55.85,22.95 -25.13,5.66 -52.03,2.91 -75.45,-7.87 5.12,0.45 10.02,2.31 15.18,2.6 26.8,2.55 54.03,-5.84 76.18,-20.78 -2.98,0.75 -5.62,2.41 -8.48,3.52 -19.15,8.13 -40.37,12.82 -61.17,9.68 -16.92,-2.36 -32.62,-10.27 -46.1,-20.54 -9.17,-7.08 -17.18,-16.89 -18.63,-28.74 -1.32,-12.36 3.1,-24.56 8.99,-35.24 10.33,-18 25.86,-32.46 42.86,-44.08 15.75,-10.55 33.14,-18.87 51.6,-23.37 z"
         id="path2-7"
         style="fill:#ffd700;fill-opacity:1" /></g></g></svg>
